<?xml version="1.0" standalone="no"?>
<!DOCTYPE svg PUBLIC "-//W3C//DTD SVG 1.1//EN" "http://www.w3.org/Graphics/SVG/1.1/DTD/svg11.dtd" >
<!--
2013-9-30: Created.
-->
<svg>
<metadata>
Created by iconfont
</metadata>
<defs>

<font id="iconfont" horiz-adv-x="1024" >
  <font-face
    font-family="iconfont"
    font-weight="500"
    font-stretch="normal"
    units-per-em="1024"
    ascent="896"
    descent="-128"
  />
    <missing-glyph />
    
    <glyph glyph-name="search" unicode="&#58883;" d="M896 448c0 249.6-198.4 448-448 448s-448-198.4-448-448 198.4-448 448-448 448 198.4 448 448zM128 448c0 179.2 140.8 320 320 320s320-140.8 320-320-140.8-320-320-320-320 140.8-320 320zM768 38.4l89.6 89.6 134.4-134.4-89.6-89.6-134.4 134.4z"  horiz-adv-x="1024" />

    
    <glyph glyph-name="sortup" unicode="&#58915;" d="M426.667 512v-469.333c0-42.667-34.133-85.333-85.333-85.333s-85.333 34.133-85.333 85.333v426.667h-170.667c-51.2 0-59.733 25.6-17.067 51.2l290.133 238.933c42.667 25.6 68.267 8.533 68.267-34.133v-213.333zM512 42.667c0-51.2 42.667-85.333 85.333-85.333h341.333c42.667 0 85.333 34.133 85.333 85.333s-42.667 85.333-85.333 85.333h-341.333c-51.2 0-85.333-34.133-85.333-85.333zM682.667 384c0-51.2 34.133-85.333 85.333-85.333h170.667c51.2 0 85.333 34.133 85.333 85.333s-34.133 85.333-85.333 85.333h-170.667c-42.667 0-85.333-34.133-85.333-85.333zM853.333 725.333c0-51.2 34.133-85.333 85.333-85.333s85.333 34.133 85.333 85.333-34.133 85.333-85.333 85.333-85.333-34.133-85.333-85.333z"  horiz-adv-x="1024" />

    
    <glyph glyph-name="sortdown" unicode="&#58917;" d="M426.667 256v469.333c0 42.667-34.133 85.333-85.333 85.333s-85.333-34.133-85.333-85.333v-426.667h-170.667c-51.2 0-59.733-25.6-17.067-51.2l290.133-238.933c42.667-25.6 68.267-8.533 68.267 34.133v213.333zM512 725.333c0 51.2 42.667 85.333 85.333 85.333h341.333c42.667 0 85.333-34.133 85.333-85.333s-42.667-85.333-85.333-85.333h-341.333c-51.2 0-85.333 34.133-85.333 85.333zM682.667 384c0 51.2 34.133 85.333 85.333 85.333h170.667c51.2 0 85.333-34.133 85.333-85.333s-34.133-85.333-85.333-85.333h-170.667c-42.667 0-85.333 34.133-85.333 85.333zM853.333 42.667c0 51.2 34.133 85.333 85.333 85.333s85.333-34.133 85.333-85.333-34.133-85.333-85.333-85.333-85.333 34.133-85.333 85.333z"  horiz-adv-x="1024" />

    
    <glyph glyph-name="faq" unicode="&#58924;" d="M640 46.080c-40.96-10.24-81.92-20.48-128-20.48-199.68 0-358.4 158.72-358.4 358.4s158.72 358.4 358.4 358.4 358.4-158.72 358.4-358.4c0-117.76-56.32-220.16-143.36-286.72l46.080-81.92-87.040-51.2-46.080 81.92zM583.68 138.24c-20.48-5.12-46.080-10.24-71.68-10.24-143.36 0-256 112.64-256 256s112.64 256 256 256 256-112.64 256-256c0-76.8-35.84-148.48-92.16-194.56l-30.72 51.2-87.040-51.2 25.6-51.2zM512-128c281.6 0 512 230.4 512 512s-230.4 512-512 512-512-230.4-512-512 230.4-512 512-512z"  horiz-adv-x="1024" />

    
    <glyph glyph-name="comment" unicode="&#58931;" d="M320 32c12.8-6.4 19.2-12.8 51.2-38.4 57.6-44.8 89.6-64 140.8-64s83.2 19.2 140.8 64c32 25.6 44.8 32 51.2 38.4 64 19.2 115.2 51.2 166.4 96 96 83.2 153.6 198.4 153.6 320 0 249.6-230.4 448-512 448s-512-198.4-512-448c0-121.6 57.6-236.8 153.6-320 44.8-38.4 102.4-70.4 166.4-96zM128 448c0 172.8 172.8 320 384 320s384-147.2 384-320c0-83.2-38.4-160-108.8-224-38.4-32-76.8-57.6-128-70.4-25.6-12.8-38.4-19.2-89.6-51.2-32-32-44.8-38.4-57.6-38.4s-25.6 6.4-64 38.4c-44.8 32-57.6 44.8-89.6 51.2-44.8 19.2-89.6 38.4-128 70.4-64 64-102.4 140.8-102.4 224zM480 480c0 70.4-57.6 128-128 128s-128-57.6-128-128 57.6-128 128-128 128 57.6 128 128zM288 480c0 38.4 25.6 64 64 64s64-25.6 64-64-25.6-64-64-64-64 25.6-64 64zM800 480c0 70.4-57.6 128-128 128s-128-57.6-128-128 57.6-128 128-128 128 57.6 128 128zM608 480c0 38.4 25.6 64 64 64s64-25.6 64-64-25.6-64-64-64-64 25.6-64 64z"  horiz-adv-x="1024" />

    
    <glyph glyph-name="prompt2" unicode="&#58933;" d="M1024 384c0 281.6-230.4 512-512 512s-512-230.4-512-512 230.4-512 512-512 512 230.4 512 512zM128 384c0 211.2 172.8 384 384 384s384-172.8 384-384-172.8-384-384-384-384 172.8-384 384zM537.6 268.8h-83.2v32c0 19.2 6.4 38.4 12.8 57.6s19.2 32 38.4 44.8c19.2 19.2 38.4 32 44.8 44.8s12.8 25.6 12.8 38.4c0 12.8-6.4 25.6-19.2 38.4s-25.6 12.8-44.8 12.8c-38.4 0-76.8-12.8-108.8-44.8v96c38.4 19.2 76.8 32 121.6 32s83.2-12.8 108.8-32c25.6-19.2 38.4-51.2 38.4-89.6 0-25.6-6.4-44.8-19.2-64s-32-38.4-57.6-64c-19.2-19.2-32-32-38.4-44.8s-6.4-19.2-6.4-38.4v-19.2zM492.8 224c12.8 0 32-6.4 38.4-12.8s19.2-25.6 19.2-38.4c0-12.8-6.4-25.6-19.2-38.4s-19.2-12.8-38.4-12.8-32 6.4-38.4 12.8-19.2 25.6-19.2 38.4c0 12.8 6.4 25.6 19.2 38.4s25.6 12.8 38.4 12.8z"  horiz-adv-x="1024" />

    
    <glyph glyph-name="book2" unicode="&#58934;" d="M819.2 448c108.8 0 192 83.2 192 192s-83.2 192-192 192h-704c-102.4 0-134.4-96-51.2-153.6l32-19.2c19.2-12.8 19.2-19.2 0-32l-32-25.6c-76.8-57.6-51.2-153.6 51.2-153.6-89.6 0-128-89.6-64-153.6l57.6-57.6c25.6-25.6 25.6-64 0-89.6l-57.6-57.6c-64-64-25.6-153.6 64-153.6h704c108.8 0 192 83.2 192 192v128c0 108.8-89.6 192-192 192zM224 704h588.8c38.4 0 64-25.6 64-64s-25.6-64-64-64h-588.8s38.4 64 0 128zM819.2 64h-620.8s115.2 166.4 0 256h614.4c38.4 0 64-25.6 64-64h-473.6v-64h480v-64c0-38.4-32-64-64-64z"  horiz-adv-x="1024" />

    
    <glyph glyph-name="clearlist" unicode="&#58935;" d="M0 298.667h1024v-341.333h-1024v341.333zM0 810.667h1024v-170.667h-1024v170.667zM0 554.667h426.667v-170.667h-426.667v170.667zM597.333 554.667h426.667v-170.667h-426.667v170.667z"  horiz-adv-x="1024" />

    
    <glyph glyph-name="newscenter" unicode="&#58936;" d="M832-128c108.8 0 192 83.2 192 192v320c0 281.6-230.4 512-512 512s-512-230.4-512-512 230.4-512 512-512h320zM128 384c0 211.2 172.8 384 384 384s384-172.8 384-384v-320c0-38.4-25.6-64-64-64h-320c-211.2 0-384 172.8-384 384zM352 320c51.2 0 96 44.8 96 96s-44.8 96-96 96-96-44.8-96-96 44.8-96 96-96zM672 320c51.2 0 96 44.8 96 96s-44.8 96-96 96-96-44.8-96-96 44.8-96 96-96z"  horiz-adv-x="1024" />

    
    <glyph glyph-name="door" unicode="&#58938;" d="M889.6 601.6l-288 236.8c-51.2 44.8-128 44.8-179.2 0l-288-236.8c-38.4-32-70.4-96-70.4-153.6v-576h896v576c0 57.6-32 121.6-70.4 153.6zM832 0h-192v64c0 70.4-57.6 128-128 128s-128-57.6-128-128v-64h-192v448c0 19.2 12.8 44.8 25.6 57.6l288 236.8h19.2l288-236.8c6.4-12.8 19.2-38.4 19.2-57.6v-448zM320 512h384v-64h-384z"  horiz-adv-x="1024" />

    
    <glyph glyph-name="book" unicode="&#58940;" d="M896 832c-25.6 0-70.4 0-128-6.4-96-12.8-256-57.6-256-57.6s-25.6 12.8-31.999 12.8c-76.8 25.6-160 38.4-236.8 44.799-51.199 6.4-89.6 6.4-115.2 6.4-70.4 0-128-57.6-128-128v-576.001c0-70.4 57.6-128 128-128 64 0 147.201-6.4 230.4-19.2 51.199-6.4 96-19.2 128-38.4l25.6-12.8 25.599 6.4c25.6 12.8 57.6 19.2 83.2 25.6 102.4 25.6 204.8 32 275.2 32 70.4 0 128 57.6 128 128v582.4c0 70.4-57.6 128-128 128zM896 128c-19.199 0-57.6 0-96-6.4-70.4-6.4-140.801-12.8-204.8-32-6.399 0-6.399 0-12.799-6.4v364.801c0 38.4-25.6 64-64 64s-70.4-25.6-70.4-64v-358.4c-25.599 6.4-51.2 12.8-70.4 19.2-89.6 12.8-185.6 19.199-249.6 19.2v576.001c83.2 0 198.4-12.8 313.6-44.8 19.2-6.4 70.4-25.6 70.4-25.6l19.2 6.4c76.8 25.6 166.4 44.8 249.6 51.2 51.199 6.4 89.6 12.8 115.2 12.8v-576.001z"  horiz-adv-x="1024" />

    
    <glyph glyph-name="data" unicode="&#58942;" d="M128 384c0 192 140.8 345.6 320 377.6v-441.6h441.6c0-76.8-166.4-320-377.6-320s-384 172.8-384 384zM1024 384v64h-448v448h-64c-281.6 0-512-230.4-512-512s230.4-512 512-512 512 230.4 512 512zM640 832v-320h320c0 179.2-140.8 320-320 320z"  horiz-adv-x="1024" />

    
    <glyph glyph-name="ticket" unicode="&#58943;" d="M93.867 149.333l-64 64c-34.133 34.133-25.6 76.8 12.8 102.4 0 0 140.8 68.267 302.933 230.4s230.4 307.2 230.4 307.2c25.6 42.667 68.267 46.933 102.4 12.8l68.267-68.267c-17.067-21.333-29.867-51.2-29.867-85.333 0-72.533 55.467-128 128-128 29.867 0 59.733 12.8 85.333 29.867l64-59.733c34.133-34.133 25.6-76.8-12.8-102.4 0 0-140.8-68.267-302.933-230.4s-230.4-307.2-230.4-307.2c-25.6-42.667-68.267-46.933-102.4-12.8l-68.267 68.267c17.067 21.333 29.867 51.2 29.867 85.333 0 72.533-55.467 128-128 128-29.867-4.267-59.733-17.067-85.333-34.133zM512 281.6c55.467 0 102.4 46.933 102.4 102.4s-46.933 102.4-102.4 102.4-102.4-46.933-102.4-102.4 46.933-102.4 102.4-102.4z"  horiz-adv-x="1024" />

    
    <glyph glyph-name="yuanbao" unicode="&#58944;" d="M21.333 494.933c-12.8 42.667 17.067 72.533 64 64 0 0 170.667-46.933 426.667-46.933s430.933 46.933 430.933 46.933c46.933 8.533 72.533-17.067 64-64l-85.333-345.6c-12.8-46.933-59.733-81.067-106.667-81.067h-601.6c-46.933 0-93.867 38.4-106.667 81.067l-85.333 345.6zM725.333 588.8c-46.933 72.533-123.733 115.2-213.333 115.2s-170.667-46.933-213.333-115.2c59.733-4.267 132.267-12.8 213.333-12.8s153.6 4.267 213.333 12.8z"  horiz-adv-x="1024" />

    
    <glyph glyph-name="ic-safe-on" unicode="&#58887;" d="M512 896C230.4 896 0 665.6 0 384s230.4-512 512-512 512 230.4 512 512S793.6 896 512 896zM409.6 107.52l-240.64 240.64 71.68 71.68L409.6 250.88l424.96 378.88 66.56-76.8L409.6 107.52z"  horiz-adv-x="1024" />

    
    <glyph glyph-name="ic-safe-off" unicode="&#58888;" d="M512-128c281.6 0 512 230.4 512 512S793.6 896 512 896 0 665.6 0 384s230.4-512 512-512z m-51.2 307.2h102.4v-102.4H460.8v102.4zM460.8 691.2h102.4v-409.6H460.8V691.2z"  horiz-adv-x="1024" />

    
    <glyph glyph-name="ic_head_app" unicode="&#58954;" d="M480 384C428.8 384 384 428.8 384 480S428.8 576 480 576 576 531.2 576 480 531.2 384 480 384zM896 307.2c0 38.4 25.6 64 64 64s64-25.6 64-64v-51.2c0-108.8-83.2-192-192-192H192c-108.8 0-192 83.2-192 192V704c0 108.8 83.2 192 192 192h640c108.8 0 192-83.2 192-192v-115.2c0-38.4-25.6-64-64-64s-64 25.6-64 64V704c0 38.4-25.6 64-64 64H192c-38.4 0-64-25.6-64-64v-448c0-38.4 25.6-64 64-64h640c38.4 0 64 25.6 64 64v51.2zM320 0h384c38.4 0 64-25.6 64-64s-25.6-64-64-64H320c-38.4 0-64 25.6-64 64s25.6 64 64 64z"  horiz-adv-x="1024" />

    
    <glyph glyph-name="ic_head_coll" unicode="&#58955;" d="M760.776899 81.213647c-6.339807 31.699037 19.019422 69.737882 50.71846 76.07769s69.737882-19.019422 76.07769-50.71846c12.679615-88.757305-44.378652-171.174802-126.79615-183.854417-31.699037-6.339807-69.737882 0-101.43692 19.019422L545.223444-1.20385c-19.019422 12.679615-38.038845 12.679615-57.058267 0l-114.116535-63.398075c-76.07769-38.038845-171.174802-12.679615-215.553455 63.398075-19.019422 31.699037-19.019422 63.398075-19.019422 101.43692l19.019422 126.796149c6.339807 19.019422-6.339807 44.378652-19.019422 57.058268L57.058267 366.504984c-63.398075 63.398075-63.398075 158.495187 0 221.893262 25.35923 31.699037 57.058267 44.378652 88.757305 50.71846l126.79615 19.019423c19.019422 0 38.038845 19.019422 50.71846 31.699037L380.388449 803.951701C412.087487 886.369198 507.184599 918.068236 589.602097 880.029391c31.699037-12.679615 57.058267-38.038845 69.737882-69.737882l57.058267-114.116535c6.339807-19.019422 25.35923-31.699037 50.71846-31.699038l126.79615-19.019422c88.757305-12.679615 145.815572-95.097112 133.135957-177.51461-6.339807-31.699037-19.019422-63.398075-44.378652-88.757305L887.573049 284.087487c-25.35923-25.35923-63.398075-25.35923-88.757305 0s-25.35923 63.398075 0 88.757305L887.573049 461.602097c6.339807 6.339807 6.339807 12.679615 6.339807 19.019422 0 19.019422-6.339807 31.699037-25.35923 38.038845l-126.79615 19.019422c-63.398075 6.339807-114.116535 50.71846-145.815572 101.43692l-50.71846 107.776728c0 6.339807-6.339807 12.679615-12.679615 12.679615-12.679615 6.339807-31.699037 0-44.378652-12.679615l-57.058268-107.776728c-25.35923-57.058267-82.417497-95.097112-139.475764-107.776727l-126.79615-19.019422c-6.339807 0-12.679615 0-19.019423-6.339808-12.679615-12.679615-12.679615-31.699037 0-44.378652l88.757305-88.757305c44.378652-44.378652 63.398075-107.776727 57.058268-171.174803l-19.019423-126.796149c0-6.339807 0-12.679615 6.339808-19.019423 6.339807-12.679615 25.35923-19.019422 44.378652-12.679615l114.116535 57.058268c57.058267 31.699037 120.456342 31.699037 177.51461 0l114.116534-57.058268c6.339807-6.339807 12.679615-6.339807 19.019423-6.339807 6.339807 6.339807 19.019422 25.35923 12.679615 44.378652zM507.184599 315.786524c-38.038845 0-63.398075 25.35923-63.398075 63.398075s25.35923 63.398075 63.398075 63.398075 63.398075-25.35923 63.398075-63.398075-25.35923-63.398075-63.398075-63.398075z"  horiz-adv-x="1038" />

    
    <glyph glyph-name="ic_head_inform" unicode="&#58956;" d="M896 371.2L588.8 320h-25.6l-256 64c-38.4 12.8-57.6 44.8-51.2 76.8s44.8 57.6 76.8 51.2L576 448l371.2 64c38.4 6.4 76.8-25.6 76.8-64v-320c0-108.8-83.2-192-192-192H192c-108.8 0-192 83.2-192 192V640c0 108.8 83.2 192 192 192h640c108.8 0 192-83.2 192-192 0-38.4-25.6-64-64-64s-64 25.6-64 64c0 32-25.6 64-64 64H192c-32 0-64-32-64-64v-512c0-38.4 32-64 64-64h640c38.4 0 64 25.6 64 64V371.2z"  horiz-adv-x="1024" />

    
    <glyph glyph-name="ic_head_search" unicode="&#58957;" d="M448 896C198.4 896 0 697.6 0 448s198.4-448 448-448 448 198.4 448 448-198.4 448-448 448z m0-768c-179.2 0-320 140.8-320 320s140.8 320 320 320 320-140.8 320-320-140.8-320-320-320zM825.6-19.2c-25.6 25.6-25.6 64 0 89.6 25.6 25.6 64 25.6 89.6 0l89.6-89.6c25.6-25.6 25.6-64 0-89.6-25.6-25.6-64-25.6-89.6 0l-89.6 89.6z"  horiz-adv-x="1024" />

    
    <glyph glyph-name="ic_head_searchnull" unicode="&#58958;" d="M384 896h256c38.4 0 64-25.6 64-64s-25.6-64-64-64H384c-38.4 0-64 25.6-64 64s25.6 64 64 64zM128 704h768c38.4 0 64-25.6 64-64s-25.6-64-64-64H128c-38.4 0-64 25.6-64 64s25.6 64 64 64z m640-249.6c6.4 32 38.4 57.6 70.4 57.6 32-6.4 57.6-38.4 57.6-70.4l-51.2-396.8c-12.8-96-96-166.4-192-166.4H371.2c-96 0-179.2 70.4-192 166.4L128 441.6c-6.4 32 19.2 64 57.6 70.4 32 6.4 64-19.2 70.4-57.6l51.2-396.8c6.4-32 32-57.6 64-57.6h288c32 0 57.6 25.6 64 57.6l44.8 396.8zM416 64c-51.2 0-96 44.8-96 96S364.8 256 416 256s96-44.8 96-96S467.2 64 416 64z m224 128c-38.4 0-64 25.6-64 64s25.6 64 64 64 64-25.6 64-64-25.6-64-64-64zM448 320c-38.4 0-64 25.6-64 64s25.6 64 64 64 64-25.6 64-64-25.6-64-64-64z"  horiz-adv-x="1024" />

    
    <glyph glyph-name="ic_head_tg" unicode="&#58959;" d="M569.420561 746.068536c0 38.280374 19.140187 76.560748 44.660436 102.080997 63.800623 63.800623 165.88162 63.800623 223.302181 0l133.981308-133.981309c63.800623-63.800623 63.800623-165.88162 0-223.30218-25.520249-25.520249-63.800623-44.660436-102.080997-44.660437-6.380062-38.280374-25.520249-82.94081-57.420561-108.461059l-248.82243-248.82243c-25.520249-25.520249-63.800623-25.520249-89.320872 0-25.520249 25.520249-25.520249 63.800623 0 89.320873l248.82243 248.82243c25.520249 25.520249 25.520249 63.800623 0 89.320872L639.601246 599.327103c-25.520249 25.520249-63.800623 25.520249-89.320872 0l-401.943925-401.943925c-19.140187-12.760125-25.520249-38.280374-19.140187-57.420561l12.760124-76.560748c6.380062-25.520249 25.520249-44.660436 51.040499-51.040498l76.560747-12.760125c19.140187-6.380062 44.660436 0 57.420561 19.140187l19.140187 19.140187c25.520249 25.520249 63.800623 25.520249 89.320872 0 25.520249-25.520249 25.520249-63.800623 0-89.320872l-19.140187-19.140187c-44.660436-44.660436-108.461059-63.800623-172.261682-51.040499l-76.560747 12.760125C90.915888-96.099688 33.495327-32.299065 20.735202 37.88162l-12.760124 76.560748c-12.760125 63.800623 6.380062 127.601246 51.040498 172.261682l401.943926 401.943925c31.900312 31.900312 70.180685 51.040498 108.461059 57.420561z m178.641744 12.760124c-12.760125 12.760125-31.900312 12.760125-44.660436 0s-12.760125-31.900312 0-44.660436L843.76324 573.806854c12.760125-12.760125 31.900312-12.760125 44.660436 0 12.760125 12.760125 12.760125 31.900312 0 44.660436l-140.361371 140.36137z"  horiz-adv-x="1024" />

    
    <glyph glyph-name="ic_list_hot" unicode="&#58960;" d="M512-128c238.933333 0 426.666667 170.666667 426.666667 384 0 204.8-93.866667 401.066667-153.6 401.066667 34.133333-128 34.133333-196.266667-34.133334-196.266667S571.733333 896 512 896 358.4 460.8 273.066667 460.8s-42.666667 119.466667-34.133334 196.266667C196.266667 657.066667 85.333333 460.8 85.333333 256 85.333333 42.666667 273.066667-128 512-128z"  horiz-adv-x="1024" />

    
    <glyph glyph-name="ic_nav_app_" unicode="&#58961;" d="M128 768h768c70.4 0 128-57.6 128-128v-512c0-70.4-57.6-128-128-128H128c-70.4 0-128 57.6-128 128V640c0 70.4 57.6 128 128 128z m192-313.6v-147.2h128v-6.4c-32-51.2-89.6-89.6-185.6-128l32-44.8c108.8 44.8 179.2 96 204.8 153.6 6.4 12.8 12.8 19.2 12.8 32h12.8v-108.8c0-44.8 19.2-64 57.6-64H704c19.2 0 38.4 6.4 44.8 12.8 12.8 12.8 19.2 44.8 19.2 96l-57.6 19.2c0-38.4-6.4-57.6-6.4-64 0-6.4-6.4-12.8-12.8-12.8H608c-12.8 0-19.2 6.4-19.2 25.6V313.6h128V492.8h-128l57.6 57.6v44.8H460.8c6.4 12.8 12.8 19.2 25.6 32l-64 12.8C377.6 569.6 320 518.4 256 480l38.4-44.8c6.4 6.4 12.8 12.8 25.6 19.2z m198.4 38.4H364.8c19.2 12.8 38.4 32 51.2 51.2h153.6l-51.2-51.2z m140.8-128h-128c6.4 25.6 6.4 44.8 6.4 70.4h121.6v-70.4z m-192 0H377.6V441.6h102.4c0-32-6.4-51.2-12.8-76.8z"  horiz-adv-x="1024" />

    
    <glyph glyph-name="ic_nav_app_1" unicode="&#58963;" d="M512 896L192 320h256l-64-448 448 640H512z"  horiz-adv-x="1024" />

    
    <glyph glyph-name="ic_phlist_down" unicode="&#58964;" d="M597.333333 554.666667c0 51.2-34.133333 85.333333-85.333333 85.333333s-85.333333-34.133333-85.333333-85.333333v-426.666667l-68.266667 68.266667c-25.6 25.6-68.266667 25.6-102.4 0-25.6-34.133333-25.6-76.8 0-102.4l179.2-179.2c25.6-25.6 51.2-42.666667 76.8-42.666667 25.6 0 51.2 17.066667 76.8 42.666667L768 93.866667c25.6 25.6 25.6 68.266667 0 102.4-25.6 25.6-68.266667 25.6-102.4 0L597.333333 128V554.666667zM512 725.333333c51.2 0 85.333333 34.133333 85.333333 85.333334s-34.133333 85.333333-85.333333 85.333333-85.333333-34.133333-85.333333-85.333333 34.133333-85.333333 85.333333-85.333334z"  horiz-adv-x="1024" />

    
    <glyph glyph-name="ic_phlist_up" unicode="&#58965;" d="M597.333333 213.333333c0-51.2-34.133333-85.333333-85.333333-85.333333s-85.333333 34.133333-85.333333 85.333333V640l-68.266667-68.266667c-25.6-25.6-68.266667-25.6-102.4 0s-25.6 76.8 0 102.4L435.2 853.333333c25.6 25.6 51.2 42.666667 76.8 42.666667 25.6 0 51.2-17.066667 76.8-42.666667L768 674.133333c25.6-25.6 25.6-68.266667 0-102.4s-68.266667-25.6-102.4 0L597.333333 640v-426.666667z m-85.333333-170.666666c51.2 0 85.333333-34.133333 85.333333-85.333334s-34.133333-85.333333-85.333333-85.333333-85.333333 34.133333-85.333333 85.333333 34.133333 85.333333 85.333333 85.333334z"  horiz-adv-x="1024" />

    
    <glyph glyph-name="ic_nav_app_2" unicode="&#58966;" d="M512 768C300.8 768 128 595.2 128 384s172.8-384 384-384 384 172.8 384 384-172.8 384-384 384z m0 128c281.6 0 512-230.4 512-512s-230.4-512-512-512-512 230.4-512 512 230.4 512 512 512zM473.6 441.6v-230.4h-38.4v19.2h-38.4v-25.6h-38.4V364.8c-6.4-12.8-12.8-19.2-19.2-32L320 371.2c25.6 44.8 44.8 96 57.6 153.6h-44.8v44.8h147.2v-44.8h-64c-6.4-25.6-12.8-57.6-19.2-83.2h76.8zM396.8 275.2h32v128h-32v-128zM518.4 512h44.8l-19.2-108.8h76.8l19.2 128H492.8V576h192l-19.2-172.8h38.4c0-108.8-6.4-172.8-19.2-185.6-12.8-19.2-38.4-25.6-76.8-25.6h-38.4l-12.8 44.8c19.2 0 32-6.4 38.4-6.4 32 0 51.2 6.4 57.6 19.2 6.4 12.8 12.8 51.2 12.8 108.8H492.8L518.4 512z m-32-192H640v-44.8H486.4V320zM691.2 563.2c-25.6 25.6-25.6 64 0 89.6l89.6 89.6 89.6-89.6-89.6-89.6c-19.2-25.6-64-25.6-89.6 0z m-358.4-448l-89.6-89.6-89.6 89.6 89.6 89.6c25.6 25.6 64 25.6 89.6 0 25.6-25.6 25.6-70.4 0-89.6z"  horiz-adv-x="1024" />

    
    <glyph glyph-name="ic_toast_yb" unicode="&#58967;" d="M512-128c-281.6 0-512 230.4-512 512s230.4 512 512 512 512-230.4 512-512-230.4-512-512-512z m352 608c0 38.4-25.6 64-64 64s-64-25.6-64-64C736 358.4 633.6 256 512 256S288 358.4 288 480c0 38.4-25.6 64-64 64s-64-25.6-64-64C160 288 320 128 512 128s352 160 352 352zM512 384c70.4 0 128 57.6 128 128s-57.6 128-128 128-128-57.6-128-128 57.6-128 128-128z"  horiz-adv-x="1024" />

    
    <glyph glyph-name="ic_toast_readticket" unicode="&#58968;" d="M262.4 896h499.2C870.4 896 960 819.2 960 723.2v-691.2c0-89.6-83.2-160-179.2-160-12.8 0-25.6 0-44.8 6.4l-179.2 38.4c-32 6.4-64 6.4-96 0l-179.2-38.4c-96-19.2-198.4 32-217.6 115.2V723.2C64 819.2 153.6 896 262.4 896z m25.6-192c-19.2 0-32-12.8-32-32s12.8-32 32-32h448c19.2 0 32 12.8 32 32s-12.8 32-32 32h-448z m0-192c-19.2 0-32-12.8-32-32s12.8-32 32-32h192c19.2 0 32 12.8 32 32S499.2 512 480 512h-192zM512 64c96 0 179.2 44.8 256 128-76.8 83.2-160 128-256 128s-179.2-44.8-256-128c76.8-83.2 160-128 256-128z m0 64c-38.4 0-64 25.6-64 64s25.6 64 64 64 64-25.6 64-64-25.6-64-64-64z"  horiz-adv-x="1024" />

    
    <glyph glyph-name="ic_toast_yp" unicode="&#58969;" d="M128 697.6V832c0 38.4 25.6 64 64 64h640c38.4 0 64-25.6 64-64v-134.4c-38.4-12.8-64-51.2-64-89.6s25.6-76.8 64-89.6V-64c0-38.4-25.6-64-64-64H192c-38.4 0-64 25.6-64 64V518.4c38.4 12.8 64 51.2 64 89.6s-25.6 76.8-64 89.6z m96-57.6v-64h128V640h-128z m192 0v-64h192V640h-192z m256 0v-64h128V640h-128z m-275.2-480h217.6v-83.2c0-12.8-6.4-19.2-19.2-19.2h-64l12.8-51.2h70.4c38.4 0 57.6 19.2 57.6 51.2V448H339.2v-243.2c0-70.4-19.2-121.6-51.2-166.4l44.8-38.4c32 44.8 51.2 96 64 160z m0 121.6h217.6v-76.8H396.8V281.6z m217.6 44.8H396.8V396.8h217.6v-70.4z"  horiz-adv-x="1024" />

    
    <glyph glyph-name="ic_head_footprint" unicode="&#58970;" d="M576 448h64c38.4 0 64-25.6 64-64s-25.6-64-64-64H512c-38.4 0-64 25.6-64 64V576c0 38.4 25.6 64 64 64s64-25.6 64-64v-128zM1024 384c0-38.4-25.6-64-64-64s-64 25.6-64 64c0 211.2-172.8 384-384 384S128 595.2 128 384s172.8-384 384-384c102.4 0 198.4 38.4 268.8 115.2 25.6 25.6 64 25.6 89.6 0s25.6-64 0-89.6C780.8-70.4 646.4-128 512-128c-281.6 0-512 230.4-512 512s230.4 512 512 512 512-230.4 512-512z"  horiz-adv-x="1024" />

    
    <glyph glyph-name="ic_navlist_new" unicode="&#58971;" d="M512-128H85.333333c-51.2 0-85.333333 34.133333-85.333333 85.333333V384c0 281.6 230.4 512 512 512s512-230.4 512-512-230.4-512-512-512zM256 640v-554.666667h93.866667V494.933333l281.6-409.6h93.866666V640H631.466667v-401.066667L349.866667 640H256z"  horiz-adv-x="1024" />

    
    <glyph glyph-name="ic_ranking_dj" unicode="&#58972;" d="M512-64c-281.6 0-512 198.4-512 448s230.4 448 512 448 512-198.4 512-448c0-121.6-57.6-236.8-147.2-313.6-44.8-38.4 25.6-76.8-38.4-96-64-25.6-256-38.4-326.4-38.4zM294.4 281.6c38.4-12.8 70.4-44.8 83.2-83.2l12.8-44.8c6.4-12.8 12.8-25.6 19.2-32 25.6-19.2 64-12.8 76.8 12.8l25.6 38.4c25.6 32 64 51.2 102.4 51.2h51.2c12.8 0 25.6 6.4 32 12.8 25.6 19.2 32 57.6 12.8 83.2l-32 38.4c-25.6 32-32 76.8-19.2 115.2l12.8 44.8c6.4 12.8 6.4 25.6 0 38.4-12.8 32-44.8 44.8-70.4 38.4L576 576c-44.8-12.8-83.2-6.4-121.6 19.2l-38.4 32C409.6 633.6 396.8 640 384 640c-32-6.4-57.6-32-57.6-64v-51.2c0-44.8-19.2-83.2-51.2-102.4l-44.8-25.6c-6.4-6.4-12.8-19.2-19.2-32-6.4-32 6.4-64 38.4-70.4l44.8-12.8z"  horiz-adv-x="1024" />

    
    <glyph glyph-name="ic_ranking_qb" unicode="&#58973;" d="M128 192h768c70.4 0 128-57.6 128-128s-57.6-128-128-128H128c-70.4 0-128 57.6-128 128s57.6 128 128 128zM128 832h768c70.4 0 128-57.6 128-128s-57.6-128-128-128H128C57.6 576 0 633.6 0 704s57.6 128 128 128zM64 448h640c38.4 0 64-25.6 64-64s-25.6-64-64-64H64c-38.4 0-64 25.6-64 64s25.6 64 64 64z m832 0h64c38.4 0 64-25.6 64-64s-25.6-64-64-64h-64c-38.4 0-64 25.6-64 64s25.6 64 64 64z"  horiz-adv-x="1024" />

    
    <glyph glyph-name="ic_ranking_hp" unicode="&#58974;" d="M384 832h256c211.2 0 384-172.8 384-384s-172.8-384-384-384l-19.2-32c-38.4-57.6-121.6-76.8-179.2-38.4-12.8 6.4-25.6 19.2-38.4 38.4L384 64c-211.2 0-384 172.8-384 384s172.8 384 384 384zM256 320c70.4 0 128 57.6 128 128s-57.6 128-128 128-128-57.6-128-128 57.6-128 128-128z m512 0c70.4 0 128 57.6 128 128s-57.6 128-128 128-128-57.6-128-128 57.6-128 128-128z"  horiz-adv-x="1024" />

    
    <glyph glyph-name="ic_ranking_pf" unicode="&#58975;" d="M639.796484 20.594084c-38.338945-12.779648-83.067715-19.169473-127.796484-19.169473s-83.067715 6.389824-121.40666 19.169473v-57.508418c0-31.949121-19.169473-57.508418-51.118594-63.898242l-95.847363-25.559297c-19.169473-6.389824-44.728769 6.389824-51.118593 31.949121-6.389824 12.779648 0 31.949121 12.779648 38.338945l102.237187 102.237188C166.949493 122.831271 64.712306 276.187052 64.712306 448.712306c0 249.203144 198.08455 447.287694 447.287694 447.287694s447.287694-198.08455 447.287694-447.287694c0-172.525254-95.847363-325.881034-242.813319-396.169101l108.627011-108.627012c12.779648-12.779648 12.779648-25.559297 12.779648-38.338945-6.389824-19.169473-25.559297-38.338945-51.118593-31.949121l-95.847363 25.559297c-25.559297 6.389824-51.118594 31.949121-51.118594 63.898242v57.508418zM512 129.221095c178.915078 0 319.49121 140.576133 319.49121 319.491211s-140.576133 319.49121-319.49121 319.49121-319.49121-140.576133-319.49121-319.49121 140.576133-319.49121 319.49121-319.491211z m0 63.898242c-140.576133 0-255.592968 115.016836-255.592968 255.592969s115.016836 255.592968 255.592968 255.592968 255.592968-115.016836 255.592968-255.592968-115.016836-255.592968-255.592968-255.592969z m108.627011 345.050508L454.491582 423.153009l-44.728769 51.118593c-12.779648 12.779648-31.949121 12.779648-44.72877 0-12.779648-12.779648-12.779648-31.949121 0-44.728769l63.898242-63.898242c12.779648-12.779648 25.559297-12.779648 38.338946-6.389824l191.694726 127.796484c12.779648 12.779648 19.169473 31.949121 6.389824 44.728769-6.389824 12.779648-25.559297 19.169473-44.72877 6.389825z"  horiz-adv-x="1024" />

    
    <glyph glyph-name="ic_ranking_rq" unicode="&#58976;" d="M512-128c-249.6 0-448 172.8-448 384 0 204.8 115.2 403.2 160 403.2-12.8-83.2-57.6-198.4 38.4-198.4S454.4 896 512 896s185.6-435.2 249.6-435.2 64 70.4 32 198.4c64 0 160-192 160-403.2 6.4-211.2-192-384-441.6-384z m0 192c108.8 0 192 44.8 192 96S620.8 256 512 256s-192-44.8-192-96S403.2 64 512 64z"  horiz-adv-x="1024" />

    
    <glyph glyph-name="ic_ranking_hz" unicode="&#58977;" d="M780.8 512c134.4-6.4 243.2-121.6 243.2-256 0-140.8-115.2-256-256-256H512c-140.8 0-256 115.2-256 256h-12.8C108.8 262.4 0 377.6 0 512c0 140.8 115.2 256 256 256h256c140.8 0 256-115.2 256-256h12.8z m-44.8-128c-44.8-76.8-128-128-224-128H384c0-70.4 57.6-128 128-128h256c70.4 0 128 57.6 128 128s-57.6 128-128 128h-32z m-448 0c44.8 76.8 128 128 224 128h128c0 70.4-57.6 128-128 128H256c-70.4 0-128-57.6-128-128s57.6-128 128-128h32zM512 320c38.4 0 64 25.6 64 64s-25.6 64-64 64-64-25.6-64-64 25.6-64 64-64z"  horiz-adv-x="1024" />

    
    <glyph glyph-name="ic_ranking_sc" unicode="&#58978;" d="M592.4672 768C701.2672 864 867.6672 851.2 963.6672 736 1174.8672 460.8 835.6672-64 515.6672-64S-156.3328 448 74.0672 736C170.0672 851.2 330.0672 870.4 445.2672 768c32-25.6 57.6-57.6 70.4-96 19.2 38.4 44.8 70.4 76.8 96z m-38.4-288c-19.2-12.8-32-32-38.4-44.8-6.4 12.8-19.2 32-32 44.8-57.6 51.2-140.8 38.4-185.6-19.2C182.8672 320 355.6672 64 515.6672 64s326.4 262.4 217.6 396.8c-44.8 57.6-128 70.4-179.2 19.2z"  horiz-adv-x="1029" />

    
    <glyph glyph-name="ic_ranking_ss" unicode="&#58979;" d="M761.6 512l-51.2-454.4c-6.4-32-32-57.6-64-57.6H377.6c-32 0-57.6 25.6-64 57.6L262.4 512H147.2c-38.4 0-64 25.6-64 64 0 19.2 12.8 38.4 25.6 51.2L473.6 870.4c19.2 12.8 51.2 12.8 70.4 0l364.8-243.2c32-19.2 38.4-57.6 19.2-89.6-12.8-12.8-32-25.6-51.2-25.6h-115.2z m-345.6-576h192c19.2 0 32-12.8 32-32s-12.8-32-32-32h-192c-19.2 0-32 12.8-32 32s12.8 32 32 32zM512 128c38.4 0 64 25.6 64 64s-25.6 192-64 192-64-153.6-64-192 25.6-64 64-64z"  horiz-adv-x="1024" />

    
    <glyph glyph-name="ic_ranking_xz" unicode="&#58980;" d="M576 864l326.4-38.4c32-6.4 51.2-25.6 57.6-57.6l32-320c0-19.2-6.4-38.4-19.2-51.2l-473.6-473.6c-25.6-25.6-64-25.6-89.6 0L51.2 281.6c-25.6 25.6-25.6 64 0 89.6L524.8 844.8c12.8 12.8 32 19.2 51.2 19.2zM768 640c25.6-25.6 64-25.6 89.6 0 25.6 25.6 25.6 64 0 89.6-25.6 25.6-64 25.6-89.6 0-25.6-19.2-25.6-64 0-89.6zM396.8 396.8l-44.8-83.2c-19.2-44.8 12.8-96 57.6-89.6l275.2 6.4c32 0 64 32 64 64s-32 64-64 64L512 345.6l44.8 83.2c19.2 44.8-6.4 96-57.6 96H320c-32 0-64-25.6-64-64s25.6-64 64-64h76.8z"  horiz-adv-x="1024" />

    
    <glyph glyph-name="ic_ranking_yp" unicode="&#58981;" d="M652.8 320C620.8 358.4 569.6 384 512 384c-108.8 0-192-83.2-192-192s83.2-192 192-192c57.6 0 108.8 25.6 140.8 64H640c-70.4 0-128 57.6-128 128s57.6 128 128 128h12.8zM384 896c0-70.4 57.6-128 128-128s128 57.6 128 128h128c70.4 0 128-57.6 128-128v-896H128V768c0 70.4 57.6 128 128 128h128zM192 640v-64h128V640H192z m256 0v-64h128V640H448z m256 0v-64h128V640h-128z"  horiz-adv-x="1024" />

    
    <glyph glyph-name="ic_newlist_title" unicode="&#58983;" d="M558.903413 767.428791L162.356377 810.068257C141.036644 814.332204 128.244804 835.651937 128.244804 856.97167c4.263947 25.58368 21.319733 42.639466 42.639466 38.37552l776.038286-85.278933c17.055786-4.263947 34.111573-21.319733 34.111573-42.639466v-810.149859c0-46.903413-38.37552-85.278932-85.278933-85.278932H128.244804c-46.903413 0-85.278932 38.37552-85.278933 85.278932v4.263947l34.111573 724.870926c4.263947 46.903413 38.37552 81.014986 85.278933 81.014986h396.547036zM512-42.721068c187.613651 0 341.11573 153.502078 341.11573 341.11573s-153.502078 341.11573-341.11573 341.11573-341.11573-153.502078-341.11573-341.11573 153.502078-341.11573 341.11573-341.11573z m-140.710239 268.628638c-17.055786-17.055786-42.639466-17.055786-59.695252 0-17.055786 17.055786-17.055786 42.639466 0 59.695253 59.695253 55.431306 93.806826 102.334719 106.598665 136.446292 12.79184 34.111573 51.167359 55.431306 81.014986 21.319733 12.79184-12.79184 17.055786-29.847626 25.58368-55.431306 8.527893-29.847626 17.055786-72.487093 25.58368-132.182346 38.37552 46.903413 68.223146 106.598666 85.278932 179.085758 4.263947 21.319733 29.847626 38.37552 51.16736 29.847627 21.319733-4.263947 38.37552-29.847626 29.847626-51.16736-29.847626-115.126559-85.278932-208.933385-170.557865-277.15653-25.58368-21.319733-63.959199-4.263947-68.223146 25.583679-8.527893 68.223146-17.055786 119.390505-25.58368 157.766026-17.055786-25.58368-46.903413-59.695253-81.014986-93.806826z"  horiz-adv-x="1024" />

    
    <glyph glyph-name="ic_comment_reply_on" unicode="&#58985;" d="M870.4 25.6H620.8l-51.2-57.6c-57.6-70.4-153.6-64-198.4 19.2 0 0-12.8 25.6-25.6 38.4h-192c-83.2 0-153.6 70.4-153.6 153.6v512C0 774.4 70.4 844.8 153.6 844.8h716.8C953.6 844.8 1024 774.4 1024 691.2v-512c0-83.2-70.4-153.6-153.6-153.6zM307.2 332.8c57.6 0 102.4 44.8 102.4 102.4s-44.8 102.4-102.4 102.4-102.4-44.8-102.4-102.4 44.8-102.4 102.4-102.4z m409.6 0c57.6 0 102.4 44.8 102.4 102.4s-44.8 102.4-102.4 102.4-102.4-44.8-102.4-102.4 44.8-102.4 102.4-102.4z"  horiz-adv-x="1024" />

    
    <glyph glyph-name="ic_comment_reply" unicode="&#58986;" d="M870.4 25.6h-250.88l-51.2-56.32c-61.44-71.68-153.6-61.44-199.68 20.48 0 0-15.36 25.6-20.48 40.96H153.6c-87.04 0-153.6 66.56-153.6 153.6V691.2c0 87.04 66.56 153.6 153.6 153.6h716.8c87.04 0 153.6-66.56 153.6-153.6v-512c0-87.04-66.56-153.6-153.6-153.6z m-302.08 102.4H870.4c25.6 0 51.2 20.48 51.2 51.2V691.2c0 30.72-20.48 51.2-51.2 51.2H153.6c-30.72 0-51.2-20.48-51.2-51.2v-512c0-30.72 20.48-51.2 51.2-51.2h250.88l51.2-92.16c10.24-20.48 20.48-20.48 35.84-5.12l76.8 97.28zM307.2 332.8c-56.32 0-102.4 46.08-102.4 102.4s46.08 102.4 102.4 102.4 102.4-46.08 102.4-102.4-46.08-102.4-102.4-102.4z m409.6 0c-56.32 0-102.4 46.08-102.4 102.4s46.08 102.4 102.4 102.4 102.4-46.08 102.4-102.4-46.08-102.4-102.4-102.4z"  horiz-adv-x="1024" />

    
    <glyph glyph-name="ic_readlist_money_of" unicode="&#58990;" d="M204.800192 588.800192C204.800192 761.600084 339.200108 896 512 896s307.199808-134.399916 307.199808-307.199808c0-31.99998-6.399996-63.99996-12.799992-95.99994A357.759776 357.759776 0 0 0 563.199968-127.99936H460.800032a357.759776 357.759776 0 0 0-243.199848 620.799612c-6.399996 31.99998-12.799992 63.99996-12.799992 95.99994z m102.399936-31.99998c51.199968 19.199988 102.399936 31.99998 153.599904 31.99998h102.399936c51.199968 0 102.399936-12.799992 153.599904-31.99998v31.99998C716.799872 704.00012 627.199928 793.600064 512 793.600064S307.200128 704.00012 307.200128 588.800192v-31.99998z m179.199888-319.9998v-134.399916c0-12.799992 12.799992-25.599984 25.599984-25.599984s25.599984 12.799992 25.599984 25.599984v134.399916c31.99998 12.799992 51.199968 38.399976 51.199968 70.399956C588.799952 352.00034 556.799972 384.00032 512 384.00032s-76.799952-31.99998-76.799952-76.799952c0-31.99998 19.199988-63.99996 51.199968-70.399956z"  horiz-adv-x="1024" />

    
    <glyph glyph-name="ic_readlist_money_on" unicode="&#58991;" d="M710.4 691.2h-19.2c-32 64-102.4 102.4-179.2 102.4-115.2 0-204.8-89.6-204.8-204.8v-32c51.2 19.2 102.4 32 153.6 32h102.4c51.2 0 102.4-12.8 153.6-32 32-12.8 64-32 89.6-57.6a357.76 357.76 0 0 0-243.2-620.8H460.8a357.76 357.76 0 0 0-243.2 620.8c-6.4 32-12.8 64-12.8 96C204.8 761.6 339.2 896 512 896c115.2 0 217.6-64 268.8-160-12.8-25.6-38.4-44.8-70.4-44.8z m-224-588.8c0-12.8 12.8-25.6 25.6-25.6s25.6 12.8 25.6 25.6v134.4c32 12.8 51.2 38.4 51.2 70.4C588.8 352 556.8 384 512 384s-76.8-32-76.8-76.8c0-32 19.2-64 51.2-70.4v-134.4z"  horiz-adv-x="1024" />

    
    <glyph glyph-name="ic_toast_byticket" unicode="&#58993;" d="M42.666667 159.288889c-56.888889 56.888889-56.888889 147.911111 0 204.8L531.911111 853.333333c56.888889 56.888889 147.911111 56.888889 204.8 0l79.644445-79.644444-19.911112-19.911111c-25.6-25.6-25.6-65.422222-2.844444-88.177778s62.577778-22.755556 88.177778 2.844444l19.911111 19.911112 79.644444-79.644445c56.888889-56.888889 56.888889-147.911111 0-204.8L492.088889-85.333333c-56.888889-56.888889-147.911111-56.888889-204.8 0l-79.644445 79.644444 19.911112 19.911111c25.6 25.6 25.6 65.422222 2.844444 88.177778s-62.577778 22.755556-88.177778-2.844444l-19.911111-19.911112-79.644444 79.644445z m82.488889 0c45.511111 28.444444 108.088889 22.755556 145.066666-14.222222 39.822222-39.822222 42.666667-99.555556 14.222222-145.066667l42.666667-42.666667c34.133333-34.133333 88.177778-34.133333 122.311111 0L938.666667 446.577778c34.133333 34.133333 34.133333 88.177778 0 122.311111L896 611.555556c-45.511111-28.444444-108.088889-22.755556-145.066667 14.222222-39.822222 39.822222-42.666667 99.555556-14.222222 145.066666l-42.666667 42.666667c-34.133333 34.133333-88.177778 34.133333-122.311111 0L82.488889 321.422222c-34.133333-34.133333-34.133333-88.177778 0-122.311111l42.666667-39.822222z m426.666666 591.644444L634.311111 668.444444l-39.822222-39.822222L512 711.111111l39.822222 39.822222z m122.311111-122.311111l82.488889-82.488889-39.822222-39.822222-82.488889 82.488889 39.822222 39.822222z m125.155556-122.311111l82.488889-82.488889-42.666667-39.822222-82.488889 82.488889 42.666667 39.822222z m-449.422222-284.444444c-68.266667 68.266667-68.266667 176.355556 0 244.622222s176.355556 68.266667 244.622222 0 68.266667-176.355556 0-244.622222-179.2-68.266667-244.622222 0z m39.822222 39.822222c45.511111-45.511111 119.466667-45.511111 162.133333 0 45.511111 45.511111 45.511111 119.466667 0 162.133333-45.511111 45.511111-119.466667 45.511111-162.133333 0-45.511111-45.511111-45.511111-116.622222 0-162.133333z"  horiz-adv-x="1024" />

    
    <glyph glyph-name="ic_choose_mouse" unicode="&#58994;" d="M890.159606 419.041938C808.395367 623.452536 477.931567 964.136866 276.927813 882.372627c-204.410598-81.764239-201.003755-558.722301-119.239516-763.132899 81.764239-204.410598 313.429583-299.80221 517.840181-218.037971 201.003755 85.171082 299.80221 313.429583 214.631128 517.840181z m-279.36115-364.532232c-85.171082-34.068433-180.562695 6.813687-214.631128 91.984769s6.813687 180.562695 91.984769 214.631127 180.562695-6.813687 214.631128-91.984769c34.068433-81.764239-6.813687-177.155851-91.984769-214.631127z"  horiz-adv-x="1024" />

    
    <glyph glyph-name="ic_readtab_next" unicode="&#58995;" d="M576 72.533333V661.333333c0 34.133333-29.866667 64-64 64s-64-29.866667-64-64v-588.8l-256 213.333334c-25.6 21.333333-68.266667 17.066667-89.6-8.533334s-17.066667-68.266667 8.533333-89.6l362.666667-298.666666c25.6-21.333333 59.733333-21.333333 81.066667 0l362.666666 298.666666c25.6 21.333333 29.866667 64 8.533334 89.6-21.333333 25.6-64 29.866667-89.6 8.533334l-260.266667-213.333334zM512 832m-64 0a64 64 0 1 1 128 0 64 64 0 1 1-128 0Z"  horiz-adv-x="1024" />

    
    <glyph glyph-name="ic_toast_close" unicode="&#58996;" d="M629.76 384l378.88-378.88c20.48-20.48 20.48-56.32 0-76.8l-40.96-40.96c-20.48-20.48-56.32-20.48-76.8 0L512 266.24l-378.88-378.88c-20.48-20.48-56.32-20.48-76.8 0l-40.96 40.96c-20.48 20.48-20.48 56.32 0 76.8L394.24 384 15.36 762.88c-20.48 20.48-20.48 56.32 0 76.8l40.96 40.96c20.48 20.48 56.32 20.48 76.8 0L512 501.76 890.88 880.64c20.48 20.48 56.32 20.48 76.8 0l40.96-40.96c20.48-20.48 20.48-56.32 0-76.8L629.76 384z"  horiz-adv-x="1024" />

    
    <glyph glyph-name="ic_barrage_on" unicode="&#58997;" d="M757.76 650.24l35.84 35.84c20.48 20.48 20.48 51.2 0 71.68-20.48 20.48-51.2 20.48-71.68 0l-71.68-71.68-5.12-5.12c-25.6 5.12-56.32 5.12-81.92 10.24V793.6c0 30.72-20.48 51.2-51.2 51.2s-51.2-25.6-51.2-51.2v-102.4c-25.6 0-46.08-5.12-71.68-10.24 0 0 0 5.12-5.12 5.12L312.32 757.76c-20.48 20.48-51.2 20.48-71.68 0-20.48-20.48-20.48-51.2 0-71.68l35.84-35.84C112.64 593.92 0 476.16 0 332.8c0-204.8 230.4-358.4 512-358.4s512 153.6 512 358.4c0 138.24-107.52 256-266.24 317.44zM512 76.8c-230.4 0-409.6 117.76-409.6 256s179.2 256 409.6 256 409.6-117.76 409.6-256-179.2-256-409.6-256zM512 332.8m-102.4 0a102.4 102.4 0 1 1 204.8 0 102.4 102.4 0 1 1-204.8 0Z"  horiz-adv-x="1024" />

    
    <glyph glyph-name="ic_read_next_icon" unicode="&#58998;" d="M512-128C230.4-128 0 102.4 0 384S230.4 896 512 896s512-230.4 512-512-230.4-512-512-512z m35.84 512l-179.2-225.28c-15.36-20.48-15.36-56.32 10.24-71.68 20.48-15.36 56.32-15.36 71.68 10.24l204.8 256c15.36 20.48 15.36 46.08 0 61.44l-204.8 256c-15.36 20.48-51.2 25.6-71.68 10.24-20.48-15.36-25.6-51.2-10.24-71.68l179.2-225.28z"  horiz-adv-x="1024" />

    
    <glyph glyph-name="ic_read_coll" unicode="&#58999;" d="M1024 384C1024 667.306667 795.306667 896 512 896S0 667.306667 0 384s228.693333-512 512-512 512 228.693333 512 512zM34.133333 384C34.133333 648.533333 247.466667 861.866667 512 861.866667s477.866667-213.333333 477.866667-477.866667-213.333333-477.866667-477.866667-477.866667S34.133333 119.466667 34.133333 384zM479.573333 191.146667c20.48 10.24 44.373333 10.24 63.146667 0l100.693333-52.906667c6.826667-3.413333 13.653333-5.12 22.186667-3.413333 18.773333 3.413333 30.72 20.48 27.306667 39.253333l-18.773334 110.933333c-3.413333 22.186667 3.413333 44.373333 20.48 59.733334l80.213334 78.506666c5.12 5.12 8.533333 11.946667 10.24 18.773334 3.413333 18.773333-10.24 35.84-29.013334 39.253333l-112.64 17.066667c-22.186667 3.413333-40.96 17.066667-51.2 37.546666l-49.493333 100.693334c-3.413333 6.826667-8.533333 11.946667-15.36 15.36-17.066667 8.533333-37.546667 1.706667-46.08-15.36l-49.493333-100.693334c-10.24-20.48-29.013333-34.133333-51.2-37.546666l-112.64-17.066667c-6.826667-1.706667-13.653333-5.12-18.773334-10.24-13.653333-13.653333-13.653333-35.84 0-47.786667l80.213334-78.506666c15.36-15.36 23.893333-37.546667 20.48-59.733334l-18.773334-110.933333c-1.706667-6.826667 0-15.36 3.413334-22.186667 8.533333-17.066667 29.013333-23.893333 46.08-13.653333l98.986666 52.906667z m17.066667-30.72l-100.693333-52.906667c-34.133333-17.066667-75.093333-5.12-92.16 29.013333-6.826667 13.653333-10.24 29.013333-6.826667 42.666667l18.773333 110.933333c1.706667 10.24-1.706667 22.186667-10.24 30.72L225.28 401.066667c-27.306667 25.6-27.306667 69.973333-1.706667 97.28 10.24 10.24 23.893333 17.066667 39.253334 20.48l112.64 17.066666c11.946667 1.706667 20.48 8.533333 25.6 18.773334l49.493333 100.693333c17.066667 34.133333 58.026667 47.786667 92.16 30.72 13.653333-6.826667 23.893333-17.066667 30.72-30.72l49.493333-100.693333c5.12-10.24 15.36-17.066667 25.6-18.773334l112.64-17.066666c37.546667-5.12 63.146667-39.253333 58.026667-76.8-1.706667-15.36-8.533333-29.013333-20.48-39.253334l-80.213333-78.506666c-8.533333-8.533333-11.946667-18.773333-10.24-30.72l18.773333-110.933334c6.826667-37.546667-18.773333-71.68-56.32-78.506666-15.36-1.706667-30.72 0-42.666667 6.826666l-100.693333 52.906667c-10.24 1.706667-20.48 1.706667-30.72-3.413333zM486.4 283.306667c6.826667-5.12 17.066667-5.12 22.186667 0l129.706666 117.76c6.826667 6.826667 6.826667 17.066667 1.706667 23.893333-6.826667 6.826667-17.066667 6.826667-23.893333 1.706667l-119.466667-107.52-61.44 54.613333c-6.826667 6.826667-17.066667 5.12-23.893333-1.706667-6.826667-6.826667-5.12-17.066667 1.706666-23.893333l73.386667-64.853333z"  horiz-adv-x="1024" />

    
    <glyph glyph-name="ic_read_ticket" unicode="&#59000;" d="M1024 384C1024 667.306667 795.306667 896 512 896S0 667.306667 0 384s228.693333-512 512-512 512 228.693333 512 512zM34.133333 384C34.133333 648.533333 247.466667 861.866667 512 861.866667s477.866667-213.333333 477.866667-477.866667-213.333333-477.866667-477.866667-477.866667S34.133333 119.466667 34.133333 384zM233.813333 250.88c-34.133333 34.133333-34.133333 87.04 0 121.173333l290.133334 290.133334c34.133333 34.133333 87.04 34.133333 121.173333 0l47.786667-47.786667-11.946667-11.946667c-15.36-15.36-15.36-37.546667-1.706667-51.2 13.653333-13.653333 37.546667-13.653333 51.2 1.706667l11.946667 11.946667 47.786667-47.786667c34.133333-34.133333 34.133333-87.04 0-121.173333l-290.133334-290.133334c-34.133333-34.133333-87.04-34.133333-121.173333 0l-47.786667 47.786667 11.946667 11.946667c15.36 15.36 15.36 37.546667 1.706667 51.2-13.653333 13.653333-37.546667 13.653333-51.2-1.706667l-11.946667-11.946667-47.786667 47.786667z m49.493334 0c27.306667 17.066667 63.146667 13.653333 87.04-8.533333 23.893333-23.893333 25.6-59.733333 8.533333-87.04l23.893333-23.893334c20.48-20.48 52.906667-20.48 71.68 0l290.133334 290.133334c20.48 20.48 20.48 52.906667 0 71.68l-23.893334 23.893333c-27.306667-17.066667-63.146667-13.653333-87.04 8.533333-23.893333 23.893333-25.6 59.733333-8.533333 87.04l-23.893333 23.893334c-20.48 20.48-52.906667 20.48-71.68 0l-290.133334-290.133334c-20.48-20.48-20.48-52.906667 0-71.68l23.893334-23.893333z m252.586666 349.866667l47.786667-47.786667-23.893333-23.893333-47.786667 47.786666 23.893333 23.893334z m73.386667-71.68l47.786667-47.786667-23.893334-23.893333-47.786666 47.786666 23.893333 23.893334z m71.68-73.386667l47.786667-47.786667-23.893334-23.893333-47.786666 47.786667 23.893333 23.893333z m-252.586667-155.306667c-34.133333 34.133333-34.133333 87.04 0 121.173334s87.04 34.133333 121.173334 0 34.133333-87.04 0-121.173334-88.746667-34.133333-121.173334 0z m23.893334 23.893334c20.48-20.48 52.906667-20.48 71.68 0s20.48 52.906667 0 71.68c-20.48 20.48-52.906667 20.48-71.68 0-20.48-18.773333-20.48-51.2 0-71.68z"  horiz-adv-x="1024" />

    
    <glyph glyph-name="ic_read_givemoney" unicode="&#59001;" d="M512-128C228.693333-128 0 100.693333 0 384S228.693333 896 512 896s512-228.693333 512-512-228.693333-512-512-512z m0 34.133333c264.533333 0 477.866667 213.333333 477.866667 477.866667S776.533333 861.866667 512 861.866667 34.133333 648.533333 34.133333 384s213.333333-477.866667 477.866667-477.866667zM529.066667 401.066667v-256h-34.133334V401.066667H307.2v-204.8c0-29.013333 22.186667-51.2 51.2-51.2h307.2c29.013333 0 51.2 22.186667 51.2 51.2V401.066667H529.066667z m-34.133334 85.333333H264.533333c-13.653333 0-25.6-11.946667-25.6-25.6s11.946667-25.6 25.6-25.6H494.933333v51.2z m34.133334 0v-51.2h230.4c13.653333 0 25.6 11.946667 25.6 25.6s-11.946667 25.6-25.6 25.6H529.066667z m-153.6 34.133333c-10.24 13.653333-17.066667 32.426667-17.066667 51.2 0 47.786667 37.546667 85.333333 85.333333 85.333334 27.306667 0 52.906667-13.653333 68.266667-34.133334 15.36 20.48 40.96 34.133333 68.266667 34.133334 47.786667 0 85.333333-37.546667 85.333333-85.333334 0-18.773333-6.826667-37.546667-17.066667-51.2h110.933334c32.426667 0 59.733333-27.306667 59.733333-59.733333S791.893333 401.066667 759.466667 401.066667H750.933333v-204.8c0-47.786667-37.546667-85.333333-85.333333-85.333334H358.4c-47.786667 0-85.333333 37.546667-85.333333 85.333334V401.066667h-8.533334c-32.426667 0-59.733333 27.306667-59.733333 59.733333s27.306667 59.733333 59.733333 59.733333H375.466667z m204.8 0c29.013333 0 51.2 22.186667 51.2 51.2s-22.186667 51.2-51.2 51.2-51.2-22.186667-51.2-51.2v-51.2h51.2z m-85.333334 0v51.2c0 29.013333-22.186667 51.2-51.2 51.2s-51.2-22.186667-51.2-51.2 22.186667-51.2 51.2-51.2h51.2z"  horiz-adv-x="1024" />

    
    <glyph glyph-name="ic_read_choose_on" unicode="&#59002;" d="M853.333333 896H170.666667C76.8 896 0 819.2 0 725.333333v-682.666666c0-93.866667 76.8-170.666667 170.666667-170.666667h682.666666c93.866667 0 170.666667 76.8 170.666667 170.666667V725.333333c0 93.866667-76.8 170.666667-170.666667 170.666667z m68.266667-307.2l-341.333333-512c-25.6-34.133333-76.8-42.666667-119.466667-17.066667l-256 170.666667c-34.133333 25.6-42.666667 76.8-17.066667 119.466667 25.6 34.133333 76.8 42.666667 119.466667 17.066666l187.733333-119.466666 290.133334 443.733333c25.6 42.666667 76.8 51.2 119.466666 25.6 34.133333-34.133333 42.666667-85.333333 17.066667-128z"  horiz-adv-x="1024" />

    
    <glyph glyph-name="ic_barrage_release" unicode="&#59003;" d="M921.6 384c0 30.72 20.48 51.2 51.2 51.2s51.2-20.48 51.2-51.2v-358.4c0-87.04-66.56-153.6-153.6-153.6H153.6c-87.04 0-153.6 66.56-153.6 153.6V742.4c0 87.04 66.56 153.6 153.6 153.6h358.4c30.72 0 51.2-20.48 51.2-51.2s-20.48-51.2-51.2-51.2H153.6c-30.72 0-51.2-20.48-51.2-51.2v-716.8c0-25.6 20.48-51.2 51.2-51.2h716.8c25.6 0 51.2 20.48 51.2 51.2v358.4zM312.32 189.44c-20.48 20.48-20.48 51.2 0 71.68L890.88 839.68c20.48 20.48 51.2 20.48 71.68 0 20.48-20.48 20.48-51.2 0-71.68L384 184.32c-20.48-15.36-51.2-15.36-71.68 5.12z"  horiz-adv-x="1024" />

    
    <glyph glyph-name="ic_barrage_off" unicode="&#59004;" d="M747.52 701.44l30.72 61.44c15.36 25.6 5.12 56.32-20.48 71.68-25.6 15.36-56.32 5.12-71.68-20.48l-46.08-81.92c-35.84 5.12-81.92 10.24-128 10.24C230.4 742.4 0 588.8 0 384c0-143.36 112.64-261.12 276.48-317.44l-30.72-61.44c-15.36-25.6-5.12-56.32 20.48-71.68 25.6-15.36 56.32-5.12 71.68 20.48l46.08 81.92c35.84-5.12 81.92-10.24 128-10.24 281.6 0 512 153.6 512 358.4 0 143.36-112.64 261.12-276.48 317.44zM327.68 153.6C194.56 199.68 102.4 286.72 102.4 384c0 138.24 179.2 256 409.6 256 25.6 0 56.32 0 81.92-5.12L512 486.4c-56.32 0-102.4-46.08-102.4-102.4 0-20.48 5.12-35.84 15.36-51.2l-97.28-179.2z m184.32-25.6c-25.6 0-56.32 0-81.92 5.12L512 281.6c56.32 0 102.4 46.08 102.4 102.4 0 20.48-5.12 35.84-15.36 51.2l97.28 174.08c133.12-40.96 225.28-128 225.28-225.28 0-138.24-179.2-256-409.6-256z"  horiz-adv-x="1024" />

    
    <glyph glyph-name="ic_readtab_share" unicode="&#59005;" d="M307.2 524.8L682.666667 746.666667C682.666667 827.733333 750.933333 896 832 896S981.333333 827.733333 981.333333 746.666667 913.066667 597.333333 832 597.333333c-34.133333 0-68.266667 12.8-93.866667 34.133334l-358.4-209.066667c4.266667-12.8 4.266667-25.6 4.266667-38.4 0-12.8 0-25.6-4.266667-34.133333l358.4-209.066667c25.6 21.333333 55.466667 34.133333 93.866667 34.133333 81.066667 0 149.333333-68.266667 149.333333-149.333333S913.066667-128 832-128 682.666667-59.733333 682.666667 21.333333v4.266667l-375.466667 217.6c-25.6-17.066667-59.733333-29.866667-93.866667-29.866667-93.866667 0-170.666667 76.8-170.666666 170.666667s76.8 170.666667 170.666666 170.666667c34.133333 0 68.266667-12.8 93.866667-29.866667z"  horiz-adv-x="1024" />

    
    <glyph glyph-name="ic_readtab_flip" unicode="&#59006;" d="M874.666667 853.333333h-725.333334C68.266667 853.333333 0 785.066667 0 704v-640C0-17.066667 68.266667-85.333333 149.333333-85.333333h725.333334c81.066667 0 149.333333 68.266667 149.333333 149.333333v640C1024 785.066667 955.733333 853.333333 874.666667 853.333333z m21.333333-789.333333c0-12.8-8.533333-21.333333-21.333333-21.333333h-725.333334c-12.8 0-21.333333 8.533333-21.333333 21.333333v640c0 12.8 8.533333 21.333333 21.333333 21.333333h725.333334c12.8 0 21.333333-8.533333 21.333333-21.333333v-640zM686.933333 384l-98.133333 132.266667c-21.333333 29.866667-17.066667 68.266667 12.8 89.6s68.266667 17.066667 89.6-12.8l128-170.666667c17.066667-21.333333 17.066667-55.466667 0-76.8l-128-170.666667c-21.333333-29.866667-59.733333-34.133333-89.6-12.8-29.866667 21.333333-34.133333 59.733333-12.8 89.6l98.133333 132.266667zM337.066667 384l98.133333-132.266667c21.333333-29.866667 17.066667-68.266667-12.8-89.6s-68.266667-17.066667-89.6 12.8l-128 170.666667c-17.066667 21.333333-17.066667 55.466667 0 76.8l128 170.666667c21.333333 29.866667 59.733333 34.133333 89.6 12.8s34.133333-59.733333 12.8-89.6L337.066667 384z"  horiz-adv-x="1024" />

    
    <glyph glyph-name="ic_readtab_app" unicode="&#59007;" d="M746.666667 896h-469.333334C196.266667 896 128 827.733333 128 746.666667v-725.333334C128-59.733333 196.266667-128 277.333333-128h469.333334c81.066667 0 149.333333 68.266667 149.333333 149.333333v725.333334C896 827.733333 827.733333 896 746.666667 896z m21.333333-874.666667c0-12.8-8.533333-21.333333-21.333333-21.333333h-469.333334c-12.8 0-21.333333 8.533333-21.333333 21.333333v725.333334c0 12.8 8.533333 21.333333 21.333333 21.333333h469.333334c12.8 0 21.333333-8.533333 21.333333-21.333333v-725.333334zM512 128m-85.333333 0a85.333333 85.333333 0 1 1 170.666666 0 85.333333 85.333333 0 1 1-170.666666 0Z"  horiz-adv-x="1024" />

    
    <glyph glyph-name="ic_readtab_light" unicode="&#59008;" d="M469.333333-42.666667h85.333334c25.6 0 42.666667-17.066667 42.666666-42.666666s-17.066667-42.666667-42.666666-42.666667h-85.333334c-25.6 0-42.666667 17.066667-42.666666 42.666667s17.066667 42.666667 42.666666 42.666666zM938.666667 490.666667C938.666667 712.533333 746.666667 896 512 896S85.333333 712.533333 85.333333 490.666667c0-132.266667 68.266667-251.733333 170.666667-324.266667 42.666667-21.333333 76.8-51.2 102.4-81.066667 42.666667-42.666667 46.933333-85.333333 106.666667-85.333333h93.866666c59.733333 0 68.266667 46.933333 106.666667 85.333333 25.6 25.6 59.733333 51.2 102.4 81.066667 102.4 72.533333 170.666667 192 170.666667 324.266667z m-238.933334-128c-51.2-76.8-106.666667-140.8-162.133333-187.733334-25.6-21.333333-68.266667-21.333333-89.6 4.266667s-21.333333 68.266667 4.266667 89.6c38.4 34.133333 76.8 76.8 115.2 128h-51.2c-51.2 0-72.533333 0-93.866667 4.266667-55.466667 8.533333-93.866667 29.866667-93.866667 85.333333 0 72.533333 59.733333 128 162.133334 174.933333 34.133333 12.8 68.266667 0 85.333333-34.133333 12.8-34.133333 0-68.266667-34.133333-85.333333-17.066667-8.533333-29.866667-12.8-42.666667-21.333334H524.8c64 0 98.133333-4.266667 128-12.8 68.266667-17.066667 89.6-81.066667 46.933333-145.066666z"  horiz-adv-x="1024" />

    
    <glyph glyph-name="ic_readtab_pre" unicode="&#59009;" d="M575.800623 692.90135v-586.965732c0-34.026999-29.773624-63.800623-63.800623-63.800623s-63.800623 29.773624-63.800623 63.800623V692.90135l-255.202492-212.668744c-25.520249-21.266874-68.053998-17.013499-89.320873 8.50675s-21.266874 68.053998 4.253375 93.574247l361.536864 297.736241c25.520249 21.266874 59.547248 21.266874 80.814123 0l361.536864-297.736241c25.520249-21.266874 29.773624-63.800623 8.50675-89.320872-21.266874-25.520249-63.800623-29.773624-89.320873-8.50675l-255.202492 208.415369zM512-0.398754c34.026999 0 63.800623-29.773624 63.800623-63.800623S546.026999-128 512-128s-63.800623 29.773624-63.800623 63.800623 29.773624 63.800623 63.800623 63.800623z"  horiz-adv-x="1024" />

    
    <glyph glyph-name="pic_read_nav_logo" unicode="&#59010;" d="M194.56 551.253333c-75.093333 0-133.12 61.44-133.12 136.533334s61.44 136.533333 133.12 136.533333 133.12-61.44 133.12-136.533333-58.026667-136.533333-133.12-136.533334z m71.68-40.96c6.826667 0 10.24-3.413333 10.24-10.24l-68.266667-617.813333c0-6.826667-6.826667-10.24-13.653333-10.24H10.24c-6.826667 0-10.24 6.826667-10.24 13.653333l88.746667 617.813334c0 6.826667 6.826667 10.24 13.653333 10.24h163.84z m92.16 34.133334l23.893333 235.52c3.413333 27.306667 27.306667 47.786667 54.613334 47.786666h730.453333l-17.066667-163.84H624.64l10.24 61.44h307.2v30.72h-334.506667l-17.066666-139.946666h556.373333l-6.826667-71.68H358.4z m1092.266667-157.013334c6.826667 3.413333 6.826667 6.826667 0 6.826667l-126.293334 34.133333c-6.826667 0-13.653333 3.413333-20.48 3.413334h-150.186666c-6.826667 0-6.826667 3.413333-3.413334 10.24l139.946667 201.386666c3.413333 3.413333 10.24 10.24 17.066667 10.24h143.36c6.826667 0 6.826667-3.413333 6.826666-10.24l-13.653333-20.48c-3.413333-6.826667 0-10.24 6.826667-10.24h583.68c30.72 0 51.2-34.133333 37.546666-61.44l-40.96-88.746666c-3.413333-3.413333-10.24-10.24-17.066666-10.24l-170.666667-58.026667c-6.826667-3.413333-6.826667-3.413333 0-6.826667l51.2-20.48c6.826667-3.413333 13.653333-3.413333 20.48-3.413333h160.426667c6.826667 0 10.24-3.413333 6.826666-10.24l-23.893333-75.093333c0-6.826667-6.826667-10.24-13.653333-10.24h-211.626667c-6.826667 0-17.066667 0-20.48 3.413333l-170.666667 58.026667c-6.826667 3.413333-13.653333 3.413333-20.48 0L1433.6 271.36c-6.826667-3.413333-13.653333-3.413333-20.48-3.413333h-256c-6.826667 0-6.826667 3.413333 0 3.413333l293.546667 116.053333z m64.853333 136.533334c-6.826667 0-6.826667-3.413333 0-3.413334l126.293333-47.786666c6.826667-3.413333 13.653333-3.413333 20.48 0l129.706667 47.786666c6.826667 3.413333 6.826667 3.413333 0 3.413334h-276.48z m624.64 85.333333c-6.826667 0-10.24 3.413333-6.826667 10.24L2184.533333 738.986667c3.413333 6.826667 10.24 10.24 13.653334 10.24h109.226666c6.826667 0 13.653333 3.413333 13.653334 10.24l17.066666 68.266666c0 6.826667 6.826667 10.24 13.653334 10.24h112.64c6.826667 0 10.24-3.413333 10.24-10.24l-10.24-68.266666c0-6.826667 3.413333-10.24 10.24-10.24h61.44c6.826667 0 10.24-3.413333 6.826666-10.24L2491.733333 622.933333c-3.413333-6.826667-10.24-10.24-13.653333-10.24h-27.306667c-6.826667 0-10.24-3.413333-13.653333-10.24l-13.653333-78.506666c0-6.826667 3.413333-10.24 10.24-10.24H2491.733333c6.826667 0 10.24-3.413333 6.826667-10.24L2443.946667 384c-3.413333-6.826667-10.24-10.24-13.653334-10.24h-17.066666c-6.826667 0-10.24-3.413333-13.653334-10.24l-58.026666-368.64c0-6.826667-6.826667-10.24-13.653334-10.24h-116.053333c-6.826667 0-10.24 3.413333-10.24 10.24l61.44 378.88c0 6.826667 0 6.826667 0 0L2150.4-5.12c0-6.826667-6.826667-10.24-13.653333-10.24h-112.64c-6.826667 0-10.24 3.413333-6.826667 10.24l143.36 505.173333c0 6.826667 6.826667 10.24 13.653333 10.24h95.573334c6.826667 0 10.24 3.413333 13.653333 10.24l13.653333 78.506667c0 6.826667-3.413333 10.24-10.24 10.24h-146.773333z m768 20.48c-6.826667 0-10.24 3.413333-6.826667 6.826667l30.72 143.36c0 6.826667 6.826667 10.24 13.653334 13.653333l116.053333 23.893333c6.826667 0 10.24-3.413333 10.24-10.24l-6.826667-136.533333c0-6.826667-6.826667-10.24-10.24-13.653333l-146.773333-27.306667zM300.373333 278.186667l23.893334 197.973333c3.413333 20.48 20.48 37.546667 40.96 37.546667h754.346666c6.826667 0 10.24-3.413333 10.24-10.24l-20.48-221.866667c0-6.826667-6.826667-10.24-10.24-10.24H310.613333c-6.826667-3.413333-10.24 0-10.24 6.826667z m235.52 153.6l-6.826666-81.92c0-6.826667 3.413333-10.24 10.24-10.24h37.546666c6.826667 0 10.24 3.413333 10.24 10.24l6.826667 81.92c0 6.826667-3.413333 10.24-10.24 10.24H546.133333c-3.413333 0-6.826667-3.413333-10.24-10.24z m167.253334 0l-6.826667-81.92c0-6.826667 3.413333-10.24 10.24-10.24h37.546667c6.826667 0 10.24 3.413333 10.24 10.24l6.826666 81.92c0 6.826667-3.413333 10.24-10.24 10.24h-37.546666c-3.413333 0-10.24-3.413333-10.24-10.24z m163.84 0l-6.826667-81.92c0-6.826667 3.413333-10.24 10.24-10.24h37.546667c6.826667 0 10.24 3.413333 10.24 10.24l6.826666 81.92c0 6.826667-3.413333 10.24-10.24 10.24h-37.546666c-6.826667 0-10.24-3.413333-10.24-10.24z m423.253333 256h-54.613333c-3.413333 0-6.826667 3.413333-6.826667 10.24l30.72 119.466666c0 6.826667 6.826667 10.24 13.653333 10.24h242.346667c6.826667 0 10.24 3.413333 10.24 10.24v17.066667c0 6.826667 3.413333 10.24 10.24 10.24h153.6c6.826667 0 10.24-3.413333 10.24-10.24v-13.653333c0-6.826667 6.826667-13.653333 10.24-13.653334h402.773333c37.546667 0 64.853333-40.96 51.2-75.093333l-37.546666-92.16c-3.413333-3.413333-10.24-6.826667-17.066667-6.826667h-136.533333c-6.826667 0-10.24 3.413333-10.24 10.24v13.653334c0 6.826667-3.413333 10.24-10.24 10.24H1290.24z m1699.84-290.133334h-146.773333c-6.826667 0-10.24-3.413333-10.24-10.24l3.413333-54.613333c0-6.826667 6.826667-10.24 10.24-10.24l187.733333 27.306667c6.826667 0 10.24-3.413333 6.826667-6.826667l-58.026667-139.946667c-3.413333-6.826667-10.24-10.24-13.653333-10.24l-129.706667-17.066666c-6.826667 0-10.24-6.826667-10.24-13.653334V-25.6c0-6.826667-3.413333-13.653333-3.413333-20.48l-30.72-71.68c-3.413333-6.826667-10.24-10.24-13.653333-10.24h-1672.533334c-40.96 0-58.026667 47.786667-27.306666 75.093333l95.573333 85.333334c3.413333 3.413333 13.653333 6.826667 20.48 6.826666h126.293333c6.826667 0 10.24-3.413333 6.826667-10.24L1297.066667-25.6c-3.413333-6.826667 0-10.24 6.826666-10.24h508.586667c6.826667 0 13.653333 3.413333 13.653333 10.24l37.546667 119.466667c3.413333 6.826667 0 10.24-6.826667 10.24H1099.093333c-6.826667 0-13.653333-3.413333-20.48-3.413334L512-124.586667c-6.826667-3.413333-13.653333-3.413333-20.48-3.413333H331.093333c-6.826667 0-13.653333 3.413333-17.066666 10.24L276.48-59.733333c-3.413333 3.413333 0 10.24 3.413333 13.653333l153.6 68.266667c6.826667 3.413333 6.826667 6.826667 0 10.24l-143.36 71.68c-6.826667 3.413333-10.24 10.24-6.826666 17.066666l10.24 85.333334c3.413333 20.48 20.48 37.546667 44.373333 37.546666h1634.986667c37.546667 0 61.44-34.133333 51.2-71.68L1962.666667-25.6c-3.413333-6.826667 0-10.24 6.826666-10.24H2662.4c6.826667 0 10.24 3.413333 10.24 10.24v167.253333c0 6.826667-3.413333 10.24-10.24 10.24l-273.066667-34.133333c-6.826667 0-10.24 3.413333-6.826666 10.24l58.026666 136.533333c3.413333 6.826667 10.24 10.24 13.653334 10.24l208.213333 23.893334c6.826667 0 10.24 6.826667 10.24 13.653333v75.093333c0 6.826667-3.413333 10.24-10.24 10.24h-187.733333c-6.826667 0-10.24 3.413333-6.826667 10.24l58.026667 129.706667c3.413333 6.826667 10.24 10.24 13.653333 10.24H2662.4c6.826667 0 10.24 3.413333 10.24 10.24l13.653333 327.68c0 6.826667 6.826667 10.24 10.24 10.24h126.293334c6.826667 0 10.24-3.413333 10.24-10.24V554.666667c0-6.826667 3.413333-10.24 10.24-10.24h218.453333c6.826667 0 10.24-3.413333 6.826667-10.24L3003.733333 407.893333c0-6.826667-6.826667-10.24-13.653333-10.24z m-2218.666667-235.52c6.826667 3.413333 3.413333 3.413333 0 3.413334H576.853333c-6.826667 0-6.826667-3.413333 0-3.413334l88.746667-37.546666c6.826667-3.413333 13.653333-3.413333 20.48 0l85.333333 37.546666z"  horiz-adv-x="3072" />

    
    <glyph glyph-name="ic_readtab_catalog" unicode="&#59011;" d="M76.8 844.8h819.2c40.96 0 76.8-35.84 76.8-76.8S936.96 691.2 896 691.2h-819.2C35.84 691.2 0 727.04 0 768S35.84 844.8 76.8 844.8z m0-384h819.2c40.96 0 76.8-35.84 76.8-76.8s-35.84-76.8-76.8-76.8h-819.2C35.84 307.2 0 343.04 0 384s35.84 76.8 76.8 76.8z m0-384h819.2c40.96 0 76.8-35.84 76.8-76.8s-35.84-76.8-76.8-76.8h-819.2C35.84-76.8 0-40.96 0 0S35.84 76.8 76.8 76.8z m1075.2 768c40.96 0 76.8-35.84 76.8-76.8S1192.96 691.2 1152 691.2 1075.2 727.04 1075.2 768 1111.04 844.8 1152 844.8z m0-384c40.96 0 76.8-35.84 76.8-76.8s-35.84-76.8-76.8-76.8S1075.2 343.04 1075.2 384s35.84 76.8 76.8 76.8z m0-384c40.96 0 76.8-35.84 76.8-76.8s-35.84-76.8-76.8-76.8-76.8 35.84-76.8 76.8 35.84 76.8 76.8 76.8z"  horiz-adv-x="1228" />

    
    <glyph glyph-name="ic_readtab_coll" unicode="&#59012;" d="M516.266667 644.266667c12.8 34.133333 34.133333 68.266667 59.733333 93.866666 102.4 98.133333 264.533333 98.133333 366.933333 0 89.6-85.333333 98.133333-196.266667 68.266667-294.4-12.8-46.933333-38.4-89.6-72.533333-136.533333-51.2-72.533333-128-162.133333-234.666667-268.8-98.133333-98.133333-256-102.4-358.4-12.8-119.466667 106.666667-204.8 192-256 273.066667-38.4 55.466667-64 106.666667-76.8 166.4-21.333333 98.133333 4.266667 200.533333 81.066667 277.333333 102.4 98.133333 264.533333 98.133333 366.933333 0 21.333333-34.133333 42.666667-64 55.466667-98.133333z"  horiz-adv-x="1026" />

    
    <glyph glyph-name="ic_readtab_roll" unicode="&#59013;" d="M832 896h-640C110.933333 896 42.666667 827.733333 42.666667 746.666667v-725.333334C42.666667-59.733333 110.933333-128 192-128h640c81.066667 0 149.333333 68.266667 149.333333 149.333333v725.333334C981.333333 827.733333 913.066667 896 832 896z m21.333333-874.666667c0-12.8-8.533333-21.333333-21.333333-21.333333h-640c-12.8 0-21.333333 8.533333-21.333333 21.333333v725.333334c0 12.8 8.533333 21.333333 21.333333 21.333333h640c12.8 0 21.333333-8.533333 21.333333-21.333333v-725.333334zM644.266667 307.2L512 209.066667l-132.266667 98.133333c-29.866667 21.333333-68.266667 17.066667-89.6-12.8s-17.066667-68.266667 12.8-89.6l170.666667-128c21.333333-17.066667 55.466667-17.066667 76.8 0l170.666667 128c29.866667 21.333333 34.133333 59.733333 12.8 89.6-21.333333 29.866667-59.733333 34.133333-89.6 12.8zM721.066667 563.2l-170.666667 128c-21.333333 17.066667-55.466667 17.066667-76.8 0l-170.666667-128c-29.866667-21.333333-34.133333-59.733333-12.8-89.6 21.333333-29.866667 59.733333-34.133333 89.6-12.8L512 558.933333l132.266667-98.133333c29.866667-21.333333 68.266667-17.066667 89.6 12.8s17.066667 68.266667-12.8 89.6z"  horiz-adv-x="1024" />

    
    <glyph glyph-name="ic_read_choose_off" unicode="&#59014;" d="M853.333333-128H170.666667c-93.866667 0-170.666667 76.8-170.666667 170.666667V725.333333C0 819.2 76.8 896 170.666667 896h682.666666c93.866667 0 170.666667-76.8 170.666667-170.666667v-682.666666c0-93.866667-76.8-170.666667-170.666667-170.666667zM170.666667 810.666667c-42.666667 0-85.333333-42.666667-85.333334-85.333334v-682.666666c0-42.666667 42.666667-85.333333 85.333334-85.333334h682.666666c42.666667 0 85.333333 42.666667 85.333334 85.333334V725.333333c0 42.666667-42.666667 85.333333-85.333334 85.333334H170.666667z"  horiz-adv-x="1024" />

    
    <glyph glyph-name="ic_buy_toast_close" unicode="&#59015;" d="M131.611146 872.22291C99.908359 903.925697 55.524458 903.925697 23.821672 872.22291S-7.881115 796.136223 23.821672 764.433437l380.433436-380.433437-380.433436-380.433437c-31.702786-31.702786-31.702786-76.086687 0-107.789473s76.086687-31.702786 107.789474 0l380.433436 380.433436 380.433437-380.433436c31.702786-31.702786 76.086687-31.702786 107.789473 0s31.702786 76.086687 0 107.789473l-380.433436 380.433437 380.433436 380.433437c31.702786 31.702786 31.702786 76.086687 0 107.789473s-76.086687 31.702786-107.789473 0l-380.433437-380.433436-380.433436 380.433436z"  horiz-adv-x="1033" />

    
    <glyph glyph-name="pic_buytoast_success" unicode="&#59016;" d="M512-128C228.571429-128 0 100.571429 0 384S228.571429 896 512 896s512-228.571429 512-512-228.571429-512-512-512zM223.085714 360.228571l201.142857-223.085714c10.971429-12.8 32.914286-14.628571 45.714286-1.828571 1.828571 0 1.828571 1.828571 1.828572 1.828571L875.885714 603.428571c10.971429 12.8 10.971429 32.914286-3.657143 45.714286-10.971429 9.142857-27.428571 10.971429-40.228571 1.828572L435.2 352.914286c-9.142857-7.314286-21.942857-9.142857-32.914286-3.657143l-142.628571 64c-16.457143 7.314286-34.742857 0-42.057143-16.457143-5.485714-12.8-3.657143-25.6 5.485714-36.571429z"  horiz-adv-x="1024" />

    
    <glyph glyph-name="ic_buytoast_wx" unicode="&#59017;" d="M371.2 262.4c-19.2-6.4-38.4 0-44.8 12.8v6.4L230.4 486.4v6.4c0 6.4 6.4 19.2 19.2 19.2h12.8l108.8-76.8c12.8-6.4 32-12.8 44.8-6.4l518.4 230.4C838.4 761.6 684.8 832 512 832 230.4 832 0 640 0 403.2c0-128 70.4-243.2 179.2-320 6.4-6.4 12.8-19.2 12.8-25.6v-12.8l-25.6-83.2v-12.8c0-6.4 6.4-19.2 19.2-19.2h12.8l108.8 64c0 6.4 12.8 12.8 19.2 12.8h12.8c57.6-12.8 108.8-25.6 166.4-25.6 281.6 0 512 192 512 428.8 0 70.4-19.2 140.8-57.6 198.4L371.2 262.4z"  horiz-adv-x="1024" />

    
    <glyph glyph-name="ic_buylist_choose" unicode="&#59018;" d="M1024 896v-819.2c0-112.64-92.16-204.8-204.8-204.8H0L1024 896z m-189.44-527.36L614.4 148.48l-66.56 66.56c-20.48 20.48-51.2 20.48-71.68 0-20.48-20.48-20.48-51.2 0-71.68l102.4-102.4c20.48-20.48 51.2-20.48 71.68 0l256 256c20.48 20.48 20.48 51.2 0 71.68-20.48 20.48-51.2 20.48-71.68 0z"  horiz-adv-x="1024" />

    
    <glyph glyph-name="ic_buytoast_zfb" unicode="&#59019;" d="M1024 192V697.6C1024 806.4 934.4 896 825.6 896H198.4C89.6 896 0 806.4 0 697.6v-627.2C0-38.4 89.6-128 198.4-128h627.2c96 0 179.2 70.4 192 160-51.2 25.6-281.6 121.6-396.8 179.2-89.6-108.8-185.6-172.8-326.4-172.8s-236.8 89.6-224 192c12.8 70.4 57.6 185.6 268.8 166.4 108.8-12.8 160-32 249.6-64 25.6 44.8 44.8 89.6 57.6 140.8H249.6V512H448V582.4H204.8v44.8H448V729.6s0 19.2 19.2 19.2h96v-115.2h256v-44.8h-256V512h211.2c-19.2-76.8-51.2-147.2-83.2-211.2 57.6-19.2 332.8-108.8 332.8-108.8zM281.6 102.4c-147.2 0-172.8 96-166.4 134.4 12.8 38.4 51.2 89.6 134.4 89.6 96 0 179.2-25.6 281.6-76.8-64-89.6-153.6-147.2-249.6-147.2z"  horiz-adv-x="1024" />

    
    <glyph glyph-name="ic_toast_ydj" unicode="&#59020;" d="M938.666667 341.333333h-85.333334v85.333334h85.333334V682.666667a42.666667 42.666667 0 0 1-42.666667 42.666666H128a42.666667 42.666667 0 0 1-42.666667-42.666666v-256h85.333334v-85.333334H85.333333v-256a42.666667 42.666667 0 0 1 42.666667-42.666666h768a42.666667 42.666667 0 0 1 42.666667 42.666666v256zM128 810.666667h768a128 128 0 0 0 128-128v-597.333334a128 128 0 0 0-128-128H128a128 128 0 0 0-128 128V682.666667a128 128 0 0 0 128 128z m390.656-413.013334c-2.048-19.797333-5.12-38.058667-9.216-54.784h153.6c0-89.088-8.362667-141.482667-25.088-157.184-7.509333-6.485333-18.261333-11.093333-32.256-13.824-10.24-1.706667-21.845333-2.901333-34.816-3.584h-32.256l-10.24 34.304h48.64c17.066667 0.682667 29.184 4.266667 36.352 10.752 7.509333 8.533333 11.946667 40.789333 13.312 96.768H499.2a243.498667 243.498667 0 0 0-35.328-64.512c-26.282667-34.133333-73.728-60.928-142.336-80.384l-14.336 33.28c59.050667 16.384 101.717333 39.936 128 70.656 10.24 12.288 18.602667 25.941333 25.088 40.96H354.816v27.136c-19.456-12.288-38.4-22.869333-56.832-31.744l-19.968 31.232c54.954667 23.210667 99.669333 54.784 134.144 94.72H293.888v33.28h143.36c12.970667 19.797333 22.869333 37.546667 29.696 53.248h-145.92v32.256h158.72c9.557333 28.330667 16.554667 57.173333 20.992 86.528l36.352-4.608c-5.12-28.672-11.776-55.978667-19.968-81.92h104.96l-25.6 14.336c16.725333 19.797333 30.378667 42.666667 40.96 68.608l31.232-11.264c-12.629333-28.330667-27.648-52.224-45.056-71.68h79.36v-32.256h-198.144a541.013333 541.013333 0 0 0-27.136-53.248h253.44v-33.28H622.08c25.6-35.84 67.754667-67.584 126.464-95.232l-24.064-29.696c-65.536 37.546667-112.128 79.189333-139.776 124.928h-129.536a413.013333 413.013333 0 0 0-92.16-88.576h109.568c5.12 18.432 8.704 37.888 10.752 58.368l35.328-3.584zM392.192 631.637333c13.994667-20.48 26.794667-42.837333 38.4-67.072l-29.696-13.312c-11.946667 25.6-25.6 48.810667-40.96 69.632l32.256 10.752z"  horiz-adv-x="1024" />

    
    <glyph glyph-name="ic_buytoast_qq" unicode="&#59021;" d="M136.745342 310.857143c-31.801242-89.043478-38.161491-178.086957-12.720497-190.807454 19.080745-12.720497 50.881988 12.720497 76.322981 57.242236 12.720497-50.881988 38.161491-95.403727 76.322981-133.565217-38.161491-19.080745-69.962733-44.521739-69.962732-76.322981 0-50.881988 69.962733-95.403727 159.006211-95.403727 82.68323 0 146.285714 31.801242 159.006211 76.322981h19.080745c12.720497-38.161491 82.68323-69.962733 159.006211-69.962733 89.043478 0 159.006211 38.161491 159.006212 95.403727 0 31.801242-25.440994 57.242236-69.962733 76.322982 38.161491 38.161491 63.602484 82.68323 76.322981 133.565217 25.440994-44.521739 57.242236-69.962733 76.322981-57.242236 25.440994 12.720497 19.080745 101.763975-12.720496 190.807453-25.440994 69.962733-63.602484 120.84472-89.043479 133.565218v12.720497c0 25.440994-6.360248 50.881988-19.080745 69.962733v6.360248c0 12.720497 0 25.440994-6.360249 31.801242 0 178.086957-108.124224 324.372671-279.850931 324.372671S257.590062 749.714286 251.229814 565.267081c-6.360248-6.360248-6.360248-19.080745-6.360249-31.801242v-6.360249c-12.720497-19.080745-19.080745-44.521739-19.080745-69.962733v-12.720497c-25.440994-12.720497-63.602484-63.602484-89.043478-133.565217"  horiz-adv-x="1024" />

    
    <glyph glyph-name="bg_vip_selected" unicode="&#59022;" d="M2.844444 896h1257.155396c54.040617-139.367906 65.417588-332.776428 28.44243-580.225567-39.819402-281.580055-307.178242-480.677063-594.446782-438.013419-11.376972 2.844243-22.753944 2.844243-34.130916 5.688486-204.785494 42.663645-423.792204 51.196374-659.864371 28.44243V896z"  horiz-adv-x="1311" />

    
    <glyph glyph-name="ic_vip_nav_home" unicode="&#59023;" d="M290.133333 460.8c25.6-8.533333 51.2-42.666667 51.2-76.8v-341.333333h341.333334v42.666666c0 51.2 34.133333 85.333333 85.333333 85.333334s85.333333-34.133333 85.333333-85.333334v-42.666666c0-93.866667-76.8-170.666667-170.666666-170.666667H341.333333c-93.866667 0-170.666667 76.8-170.666666 170.666667V298.666667H85.333333C8.533333 298.666667-25.6 392.533333 25.6 443.733333l426.666667 426.666667c34.133333 34.133333 85.333333 34.133333 119.466666 0l426.666667-426.666667c51.2-51.2 17.066667-145.066667-59.733333-145.066666H836.266667c-51.2 0-85.333333 34.133333-85.333334 85.333333 0 17.066667 8.533333 34.133333 17.066667 51.2l-256 256-221.866667-230.4z"  horiz-adv-x="1024" />

    
    <glyph glyph-name="ic_vip_nav_more" unicode="&#59024;" d="M85.333333 896h256c51.2 0 85.333333-34.133333 85.333334-85.333333v-256c0-51.2-34.133333-85.333333-85.333334-85.333334H85.333333c-51.2 0-85.333333 34.133333-85.333333 85.333334V810.666667c0 51.2 34.133333 85.333333 85.333333 85.333333z m0-597.333333h256c51.2 0 85.333333-34.133333 85.333334-85.333334v-256c0-51.2-34.133333-85.333333-85.333334-85.333333H85.333333c-51.2 0-85.333333 34.133333-85.333333 85.333333V213.333333c0 51.2 34.133333 85.333333 85.333333 85.333334z m682.666667 0h85.333333c93.866667 0 170.666667-76.8 170.666667-170.666667v-85.333333c0-93.866667-76.8-170.666667-170.666667-170.666667H768c-93.866667 0-170.666667 76.8-170.666667 170.666667V128c0 93.866667 76.8 170.666667 170.666667 170.666667z m0-85.333334c-51.2 0-85.333333-34.133333-85.333333-85.333333v-85.333333c0-51.2 34.133333-85.333333 85.333333-85.333334h85.333333c51.2 0 85.333333 34.133333 85.333334 85.333334V128c0 51.2-34.133333 85.333333-85.333334 85.333333H768zM682.666667 896h256c51.2 0 85.333333-34.133333 85.333333-85.333333v-256c0-51.2-34.133333-85.333333-85.333333-85.333334H682.666667c-51.2 0-85.333333 34.133333-85.333334 85.333334V810.666667c0 51.2 34.133333 85.333333 85.333334 85.333333z"  horiz-adv-x="1024" />

    
    <glyph glyph-name="ic_vip_switch_r" unicode="&#59025;" d="M220.16 803.84c-25.6 20.48-25.6 56.32 0 76.8 25.6 20.48 61.44 20.48 87.04 0l496.64-455.68c25.6-20.48 25.6-56.32 0-76.8l-496.64-460.8c-25.6-20.48-61.44-20.48-87.04 0s-25.6 56.32 0 76.8l450.56 419.84-450.56 419.84z"  horiz-adv-x="1024" />

    
    <glyph glyph-name="ic_vip_switch_l" unicode="&#59026;" d="M803.84 803.84c25.6 20.48 25.6 56.32 0 76.8s-61.44 20.48-87.04 0L220.16 424.96c-25.6-20.48-25.6-56.32 0-76.8l496.64-455.68c25.6-20.48 61.44-20.48 87.04 0s25.6 56.32 0 76.8L348.16 384l455.68 419.84z"  horiz-adv-x="1024" />

    
    <glyph glyph-name="ic_vip_toast_sf" unicode="&#59027;" d="M870.4 419.84c5.12 35.84 35.84 66.56 76.8 66.56s76.8-35.84 76.8-76.8c0-25.6-15.36-51.2-35.84-61.44L921.6 10.24c-10.24-46.08-51.2-81.92-102.4-81.92H199.68c-51.2 0-92.16 35.84-102.4 81.92L30.72 348.16C15.36 358.4 0 384 0 409.6 0 450.56 35.84 486.4 76.8 486.4s71.68-30.72 76.8-66.56l66.56-35.84c51.2-25.6 112.64-5.12 138.24 46.08l102.4 220.16c-30.72 20.48-51.2 51.2-51.2 92.16 0 56.32 46.08 102.4 102.4 102.4s102.4-46.08 102.4-102.4c0-40.96-20.48-71.68-51.2-92.16L665.6 435.2c25.6-51.2 87.04-71.68 138.24-46.08l66.56 30.72z m-174.08-117.76L512 112.64l-184.32 184.32c-10.24 10.24-25.6 10.24-35.84 0-10.24-10.24-10.24-25.6 0-35.84l204.8-204.8c10.24-10.24 25.6-10.24 35.84 0l204.8 204.8c10.24 10.24 10.24 25.6 0 35.84-10.24 10.24-30.72 10.24-40.96 5.12z"  horiz-adv-x="1024" />

    
    <glyph glyph-name="ic_vip_toast_hl" unicode="&#59028;" d="M819.2 896H204.8C148.48 896 102.4 849.92 102.4 793.6v-819.2c0-56.32 46.08-102.4 102.4-102.4h614.4c56.32 0 102.4 46.08 102.4 102.4V793.6c0 56.32-46.08 102.4-102.4 102.4zM204.8 716.8c0-15.36-10.24-25.6-25.6-25.6S153.6 701.44 153.6 716.8v51.2c0 15.36 10.24 25.6 25.6 25.6s25.6-10.24 25.6-25.6v-51.2z m460.8 51.2c0 15.36 10.24 25.6 25.6 25.6s25.6-10.24 25.6-25.6v-51.2c0-15.36-10.24-25.6-25.6-25.6s-25.6 10.24-25.6 25.6v51.2z m-179.2 0c0 15.36 10.24 25.6 25.6 25.6s25.6-10.24 25.6-25.6v-51.2c0-15.36-10.24-25.6-25.6-25.6s-25.6 10.24-25.6 25.6v51.2zM307.2 768c0 15.36 10.24 25.6 25.6 25.6s25.6-10.24 25.6-25.6v-51.2c0-15.36-10.24-25.6-25.6-25.6S307.2 701.44 307.2 716.8v51.2zM286.72 25.6c-10.24 15.36-15.36 30.72-25.6 35.84 97.28 35.84 163.84 87.04 199.68 158.72H358.4v-20.48h-40.96v153.6c-10.24-10.24-25.6-20.48-35.84-30.72 0 10.24-10.24 20.48-25.6 40.96 61.44 40.96 117.76 102.4 168.96 174.08l40.96-15.36c-10.24-10.24-20.48-25.6-30.72-40.96h199.68v-35.84l-56.32-56.32h122.88v-189.44H665.6v20.48H501.76c-30.72-87.04-102.4-153.6-215.04-194.56z m476.16 71.68c-5.12-35.84-30.72-56.32-76.8-56.32h-102.4c-25.6 0-46.08 5.12-51.2 15.36-10.24 10.24-15.36 25.6-15.36 51.2v87.04h35.84v-76.8c0-15.36 5.12-25.6 10.24-30.72 5.12-5.12 15.36-10.24 30.72-10.24h87.04c25.6 0 40.96 10.24 40.96 30.72 5.12 20.48 5.12 46.08 10.24 76.8 15.36-5.12 25.6-10.24 40.96-15.36 0-25.6-5.12-51.2-10.24-71.68zM870.4 716.8c0-15.36-10.24-25.6-25.6-25.6s-25.6 10.24-25.6 25.6v51.2c0 15.36 10.24 25.6 25.6 25.6s25.6-10.24 25.6-25.6v-51.2zM665.6 353.28h-138.24c0-35.84-5.12-66.56-15.36-97.28h153.6v97.28zM358.4 256h112.64c10.24 25.6 15.36 61.44 15.36 97.28H358.4v-97.28zM583.68 445.44H409.6c-15.36-20.48-35.84-35.84-51.2-56.32h168.96l56.32 56.32z"  horiz-adv-x="1024" />

    
    <glyph glyph-name="ic_vip_toast_zk" unicode="&#59029;" d="M512-128C230.4-128 0 102.4 0 384S230.4 896 512 896s512-230.4 512-512-230.4-512-512-512z m0 102.4c225.28 0 409.6 184.32 409.6 409.6s-184.32 409.6-409.6 409.6-409.6-184.32-409.6-409.6 184.32-409.6 409.6-409.6z m0 51.2c-199.68 0-358.4 158.72-358.4 358.4s158.72 358.4 358.4 358.4 358.4-158.72 358.4-358.4-158.72-358.4-358.4-358.4z m-153.6 250.88c0-25.6 5.12-51.2 20.48-76.8 15.36-20.48 30.72-40.96 56.32-51.2 25.6-10.24 51.2-20.48 76.8-20.48 30.72 0 56.32 5.12 81.92 20.48s40.96 30.72 56.32 51.2 20.48 46.08 20.48 76.8-10.24 56.32-25.6 76.8-35.84 40.96-61.44 51.2c20.48 10.24 35.84 25.6 51.2 46.08s15.36 40.96 15.36 61.44c0 25.6-5.12 46.08-15.36 66.56s-25.6 35.84-46.08 46.08c-30.72 10.24-51.2 15.36-76.8 15.36s-46.08-5.12-66.56-15.36c-20.48-10.24-35.84-25.6-51.2-46.08-10.24-20.48-15.36-40.96-15.36-66.56 0-20.48 5.12-40.96 20.48-61.44 10.24-20.48 30.72-35.84 51.2-46.08-25.6-10.24-46.08-25.6-61.44-51.2s-30.72-51.2-30.72-76.8z m56.32 0c0 30.72 10.24 51.2 25.6 71.68 20.48 20.48 40.96 25.6 66.56 25.6s51.2-10.24 66.56-25.6c20.48-20.48 25.6-40.96 25.6-66.56 0-30.72-10.24-51.2-25.6-71.68-10.24-20.48-30.72-30.72-61.44-30.72s-51.2 10.24-66.56 25.6-30.72 40.96-30.72 71.68z m20.48 230.4c0 25.6 5.12 40.96 20.48 56.32 15.36 15.36 35.84 25.6 56.32 25.6 20.48 0 40.96-10.24 56.32-25.6s20.48-35.84 20.48-56.32c0-20.48-10.24-40.96-25.6-56.32-10.24-15.36-30.72-25.6-51.2-25.6s-40.96 10.24-56.32 25.6-20.48 35.84-20.48 56.32z"  horiz-adv-x="1024" />

    
    <glyph glyph-name="ic_vip_toast_yp" unicode="&#59030;" d="M107.52 133.12L30.72 209.92c-40.96 40.96-40.96 112.64 0 153.6L532.48 865.28c40.96 40.96 112.64 40.96 153.6 0l76.8-76.8c-40.96-40.96-40.96-112.64 0-153.6 40.96-40.96 112.64-40.96 153.6 0l76.8-76.8c40.96-40.96 40.96-112.64 0-153.6l-501.76-501.76c-40.96-40.96-112.64-40.96-153.6 0l-76.8 76.8c40.96 40.96 40.96 112.64 0 153.6-40.96 46.08-107.52 46.08-153.6 0z m614.4 276.48c-10.24 46.08-46.08 87.04-92.16 107.52-81.92 35.84-179.2-5.12-215.04-87.04s5.12-179.2 87.04-215.04c15.36-5.12 25.6-10.24 40.96-10.24-46.08 35.84-61.44 102.4-35.84 158.72 25.6 71.68 107.52 102.4 174.08 71.68 15.36-5.12 30.72-15.36 40.96-25.6z"  horiz-adv-x="1024" />

    
    <glyph glyph-name="ic_float_fx" unicode="&#59031;" d="M481.28 455.68c20.48-35.84 30.72-76.8 30.72-122.88 0-25.6-5.12-46.08-10.24-66.56l235.52-107.52c30.72 46.08 76.8 71.68 133.12 71.68 87.04 0 153.6-66.56 153.6-153.6s-66.56-153.6-153.6-153.6c-76.8 0-143.36 61.44-153.6 133.12l-261.12 117.76C409.6 112.64 337.92 76.8 256 76.8c-143.36 0-256 112.64-256 256s112.64 256 256 256c61.44 0 117.76-20.48 158.72-56.32l250.88 204.8V742.4c0 56.32 46.08 102.4 102.4 102.4s102.4-46.08 102.4-102.4-46.08-102.4-102.4-102.4c-15.36 0-30.72 5.12-46.08 10.24L481.28 455.68zM256 179.2c87.04 0 153.6 66.56 153.6 153.6S343.04 486.4 256 486.4s-153.6-66.56-153.6-153.6 66.56-153.6 153.6-153.6z m0 102.4c-30.72 0-51.2 20.48-51.2 51.2s20.48 51.2 51.2 51.2 51.2-20.48 51.2-51.2-20.48-51.2-51.2-51.2z"  horiz-adv-x="1024" />

    
    <glyph glyph-name="ic_float_fk" unicode="&#59032;" d="M409.6 76.8H358.4c-199.68 0-358.4 158.72-358.4 358.4s158.72 358.4 358.4 358.4h307.2c199.68 0 358.4-158.72 358.4-358.4 0-81.92-30.72-163.84-81.92-230.4-30.72-35.84-71.68-66.56-112.64-92.16l-76.8-30.72c-25.6-5.12-56.32 10.24-61.44 35.84s10.24 56.32 35.84 61.44c20.48 5.12 35.84 10.24 56.32 20.48 30.72 15.36 56.32 35.84 81.92 66.56 35.84 46.08 56.32 102.4 56.32 163.84 0 143.36-112.64 256-256 256H358.4C215.04 691.2 102.4 578.56 102.4 435.2s112.64-256 256-256h51.2c56.32 0 107.52-20.48 143.36-61.44 20.48-20.48 35.84-40.96 46.08-66.56 10.24-25.6 0-56.32-25.6-66.56-25.6-10.24-56.32 0-66.56 25.6-5.12 10.24-10.24 25.6-20.48 30.72-25.6 25.6-51.2 35.84-76.8 35.84zM358.4 435.2c-30.72 0-51.2 20.48-51.2 51.2s20.48 51.2 51.2 51.2 51.2-20.48 51.2-51.2-20.48-51.2-51.2-51.2z m307.2 0c-30.72 0-51.2 20.48-51.2 51.2s20.48 51.2 51.2 51.2 51.2-20.48 51.2-51.2-20.48-51.2-51.2-51.2z"  horiz-adv-x="1024" />

    
    <glyph glyph-name="ic_float_ewm" unicode="&#59033;" d="M153.6 844.8h204.8c56.32 0 102.4-46.08 102.4-102.4v-204.8c0-56.32-46.08-102.4-102.4-102.4H153.6c-56.32 0-102.4 46.08-102.4 102.4V742.4c0 56.32 46.08 102.4 102.4 102.4z m0-102.4v-204.8h204.8V742.4H153.6z m512 102.4h204.8c56.32 0 102.4-46.08 102.4-102.4v-204.8c0-56.32-46.08-102.4-102.4-102.4h-204.8c-56.32 0-102.4 46.08-102.4 102.4V742.4c0 56.32 46.08 102.4 102.4 102.4z m0-102.4v-204.8h204.8V742.4h-204.8zM153.6 332.8h204.8c56.32 0 102.4-46.08 102.4-102.4v-204.8c0-56.32-46.08-102.4-102.4-102.4H153.6c-56.32 0-102.4 46.08-102.4 102.4v204.8c0 56.32 46.08 102.4 102.4 102.4z m0-102.4v-204.8h204.8v204.8H153.6z m460.8 102.4h307.2c30.72 0 51.2-20.48 51.2-51.2s-20.48-51.2-51.2-51.2h-307.2c-30.72 0-51.2 20.48-51.2 51.2s20.48 51.2 51.2 51.2z m0-153.6c30.72 0 51.2-20.48 51.2-51.2s-20.48-51.2-51.2-51.2-51.2 20.48-51.2 51.2 20.48 51.2 51.2 51.2z m204.8 0h102.4c30.72 0 51.2-20.48 51.2-51.2s-20.48-51.2-51.2-51.2h-102.4c-30.72 0-51.2 20.48-51.2 51.2s20.48 51.2 51.2 51.2z m-204.8-153.6h51.2c30.72 0 51.2-20.48 51.2-51.2s-20.48-51.2-51.2-51.2h-51.2c-30.72 0-51.2 20.48-51.2 51.2s20.48 51.2 51.2 51.2z m256 0h51.2c30.72 0 51.2-20.48 51.2-51.2s-20.48-51.2-51.2-51.2h-51.2c-30.72 0-51.2 20.48-51.2 51.2s20.48 51.2 51.2 51.2zM256 691.2c30.72 0 51.2-20.48 51.2-51.2s-20.48-51.2-51.2-51.2-51.2 20.48-51.2 51.2 20.48 51.2 51.2 51.2z m512 0c30.72 0 51.2-20.48 51.2-51.2s-20.48-51.2-51.2-51.2-51.2 20.48-51.2 51.2 20.48 51.2 51.2 51.2zM256 179.2c30.72 0 51.2-20.48 51.2-51.2s-20.48-51.2-51.2-51.2-51.2 20.48-51.2 51.2 20.48 51.2 51.2 51.2z"  horiz-adv-x="1024" />

    
    <glyph glyph-name="ic_float_top" unicode="&#59034;" d="M460.8 691.2L81.92 394.24c-20.48-15.36-56.32-10.24-71.68 10.24-15.36 20.48-10.24 56.32 10.24 71.68l460.8 358.4c20.48 15.36 46.08 15.36 61.44 0l460.8-358.4c20.48-15.36 25.6-51.2 10.24-71.68-15.36-20.48-51.2-25.6-71.68-10.24L563.2 691.2v-460.8c0-30.72-20.48-51.2-51.2-51.2s-51.2 20.48-51.2 51.2V691.2zM512 76.8c30.72 0 51.2-20.48 51.2-51.2v-51.2c0-30.72-20.48-51.2-51.2-51.2s-51.2 20.48-51.2 51.2v51.2c0 30.72 20.48 51.2 51.2 51.2z"  horiz-adv-x="1024" />

    
    <glyph glyph-name="ic_login_wx" unicode="&#59035;" d="M691.2 552.96h35.84c-30.72 153.6-184.32 266.24-363.52 266.24C163.84 819.2 0 675.84 0 496.64c0-102.4 56.32-189.44 143.36-256L107.52 128l128 66.56c46.08-10.24 81.92-20.48 128-20.48h35.84c-5.12 25.6-10.24 51.2-10.24 76.8-5.12 168.96 133.12 302.08 302.08 302.08z m-194.56 102.4c25.6 0 46.08-20.48 46.08-46.08 0-30.72-20.48-46.08-46.08-46.08s-51.2 20.48-51.2 46.08c0 30.72 25.6 46.08 51.2 46.08zM245.76 563.2c-25.6 0-56.32 20.48-56.32 46.08 0 30.72 25.6 46.08 56.32 46.08 25.6 0 46.08-20.48 46.08-46.08s-20.48-46.08-46.08-46.08zM1024 261.12C1024 409.6 880.64 537.6 716.8 537.6c-174.08 0-307.2-122.88-307.2-276.48 0-153.6 133.12-276.48 307.2-276.48 35.84 0 71.68 10.24 107.52 20.48l97.28-56.32-25.6 92.16c71.68 61.44 128 133.12 128 220.16z m-409.6 46.08c-20.48 0-35.84 20.48-35.84 35.84 0 20.48 20.48 35.84 35.84 35.84 25.6 0 46.08-20.48 46.08-35.84 0-15.36-15.36-35.84-46.08-35.84z m199.68 0c-15.36 0-35.84 20.48-35.84 35.84 0 20.48 20.48 35.84 35.84 35.84 25.6 0 46.08-20.48 46.08-35.84 0-15.36-15.36-35.84-46.08-35.84z"  horiz-adv-x="1024" />

    
    <glyph glyph-name="ic_login_xl" unicode="&#59036;" d="M758.131712 394.24c-40.96 10.24-20.48 30.72-20.48 30.72s40.96 66.56-10.24 117.76c-56.32 61.44-194.56-5.12-194.56-5.12-51.2-15.36-40.96 10.24-30.72 51.2 0 51.2-15.36 138.24-158.72 87.04-143.36-51.2-266.24-235.52-266.24-235.52C-9.868288 322.56 0.371712 225.28 0.371712 225.28c20.48-204.8 225.28-261.12 389.12-276.48 168.96-15.36 399.36 61.44 465.92 220.16 66.56 153.6-56.32 220.16-97.28 225.28z m-358.4-384c-168.96-10.24-302.08 81.92-302.08 199.68S230.771712 424.96 399.731712 435.2c168.96 10.24 302.08-66.56 302.08-184.32 5.12-122.88-133.12-235.52-302.08-240.64z m-30.72 343.04c-168.96-20.48-148.48-189.44-148.48-189.44s0-51.2 46.08-81.92c97.28-56.32 199.68-20.48 250.88 46.08 51.2 76.8 20.48 245.76-148.48 225.28z m-40.96-235.52c-30.72-5.12-56.32 15.36-56.32 40.96s20.48 56.32 56.32 61.44c35.84 5.12 61.44-20.48 61.44-46.08-5.12-25.6-30.72-51.2-61.44-56.32z m97.28 92.16c-10.24-10.24-25.6-5.12-30.72 5.12-5.12 10.24-5.12 25.6 5.12 35.84 10.24 10.24 25.6 5.12 30.72-5.12 10.24-15.36 5.12-30.72-5.12-35.84z m414.72 256c15.36 0 25.6 10.24 25.6 25.6v5.12c20.48 194.56-153.6 163.84-153.6 163.84-15.36 0-25.6-15.36-25.6-30.72s10.24-30.72 25.6-30.72c122.88 30.72 97.28-102.4 97.28-102.4 5.12-15.36 15.36-30.72 30.72-30.72zM819.571712 814.08c-61.44 15.36-122.88 0-138.24 0h-5.12c-15.36-5.12-30.72-20.48-30.72-40.96 0-25.6 15.36-40.96 40.96-40.96 0 0 20.48 5.12 35.84 10.24 15.36 5.12 138.24 5.12 199.68-102.4 35.84-81.92 15.36-133.12 10.24-143.36 0 0-10.24-20.48-10.24-40.96 0-25.6 20.48-40.96 40.96-40.96s35.84 5.12 40.96 35.84C1075.571712 675.84 927.091712 783.36 819.571712 814.08z"  horiz-adv-x="1024" />

    
    <glyph glyph-name="ic_comment_reply1" unicode="&#59037;" d="M870.4 25.6h-250.88l-51.2-56.32c-61.44-71.68-153.6-61.44-199.68 20.48 0 0-15.36 25.6-20.48 40.96H153.6c-87.04 0-153.6 66.56-153.6 153.6V691.2c0 87.04 66.56 153.6 153.6 153.6h716.8c87.04 0 153.6-66.56 153.6-153.6v-512c0-87.04-66.56-153.6-153.6-153.6z m-302.08 102.4H870.4c25.6 0 51.2 20.48 51.2 51.2V691.2c0 30.72-20.48 51.2-51.2 51.2H153.6c-30.72 0-51.2-20.48-51.2-51.2v-512c0-30.72 20.48-51.2 51.2-51.2h250.88l51.2-92.16c10.24-20.48 20.48-20.48 35.84-5.12l76.8 97.28zM307.2 332.8c-56.32 0-102.4 46.08-102.4 102.4s46.08 102.4 102.4 102.4 102.4-46.08 102.4-102.4-46.08-102.4-102.4-102.4z m409.6 0c-56.32 0-102.4 46.08-102.4 102.4s46.08 102.4 102.4 102.4 102.4-46.08 102.4-102.4-46.08-102.4-102.4-102.4z"  horiz-adv-x="1024" />

    
    <glyph glyph-name="ic_comment_reply_on1" unicode="&#59038;" d="M870.4 25.6H620.8l-51.2-57.6c-57.6-70.4-153.6-64-198.4 19.2 0 0-12.8 25.6-25.6 38.4h-192c-83.2 0-153.6 70.4-153.6 153.6v512C0 774.4 70.4 844.8 153.6 844.8h716.8C953.6 844.8 1024 774.4 1024 691.2v-512c0-83.2-70.4-153.6-153.6-153.6zM307.2 332.8c57.6 0 102.4 44.8 102.4 102.4s-44.8 102.4-102.4 102.4-102.4-44.8-102.4-102.4 44.8-102.4 102.4-102.4z m409.6 0c57.6 0 102.4 44.8 102.4 102.4s-44.8 102.4-102.4 102.4-102.4-44.8-102.4-102.4 44.8-102.4 102.4-102.4z"  horiz-adv-x="1024" />

    
    <glyph glyph-name="ic_comment_like" unicode="&#59039;" d="M275.2 556.8l64 198.4c12.8 38.4 89.6 64 147.2 51.2 51.2-19.2 108.8-83.2 89.6-147.2l-25.6-76.8c-6.4-32 12.8-70.4 44.8-76.8h256c96 0 172.8-70.4 172.8-153.6V192c0-83.2-76.8-230.4-172.8-230.4H512c-140.8 0-256 102.4-256 230.4V441.6c0 38.4 6.4 76.8 19.2 115.2zM64 467.2h44.8c38.4 0 64-25.6 64-64v-300.8c0-38.4-25.6-64-64-64H64c-38.4 0-64 25.6-64 64V403.2c0 38.4 25.6 64 64 64z"  horiz-adv-x="1024" />

    
    <glyph glyph-name="ic_ranking_vip_off" unicode="&#59040;" d="M896 460.8c6.4 32 32 51.2 64 51.2 38.4 0 64-25.6 64-64s-25.6-64-64-64l-64-339.2c-12.8-64-64-108.8-128-108.8H249.6c-64 0-115.2 44.8-128 108.8L64 384c-38.4 0-64 25.6-64 64s25.6 64 64 64c32 0 57.6-19.2 64-51.2 12.8 0 25.6 0 32-6.4l44.8-25.6c64-32 140.8-12.8 172.8 51.2 0 6.4 6.4 6.4 6.4 12.8l70.4 160v6.4c-25.6 19.2-38.4 44.8-38.4 76.8C416 787.2 460.8 832 512 832s96-44.8 96-96c0-32-12.8-57.6-38.4-76.8v-6.4L640 492.8c25.6-64 102.4-96 166.4-64 6.4 0 6.4 6.4 12.8 6.4l44.8 25.6c12.8 0 25.6 6.4 32 0z m-153.6-147.2L512 76.8 281.6 313.6c-12.8 6.4-38.4 6.4-51.2 0-12.8-12.8-12.8-32 0-44.8l256-256c12.8-12.8 32-12.8 44.8 0l256 256c12.8 12.8 12.8 32 0 44.8-6.4 6.4-32 6.4-44.8 0z"  horiz-adv-x="1024" />

    
    <glyph glyph-name="ic_ranking_ds_off" unicode="&#59041;" d="M108.8 448C179.2 371.2 332.8 320 512 320s332.8 51.2 403.2 128c32-32 44.8-64 44.8-96 0-121.6-198.4-224-448-224s-448 102.4-448 224c0 32 12.8 64 44.8 96z m0-256c70.4-76.8 224-128 403.2-128s332.8 51.2 403.2 128c25.6-32 44.8-64 44.8-96 0-121.6-198.4-224-448-224s-448 102.4-448 224c0 32 12.8 64 44.8 96zM512 384C262.4 384 64 499.2 64 640s198.4 256 448 256 448-115.2 448-256-198.4-256-448-256z"  horiz-adv-x="1024" />

    
    <glyph glyph-name="ic_ranking_ff_off" unicode="&#59042;" d="M256 691.2C275.2 627.2 384 576 512 576s236.8 51.2 256 115.2c115.2-83.2 192-217.6 192-371.2 0-249.6-198.4-448-448-448s-448 198.4-448 448c0 153.6 76.8 288 192 371.2z m204.8-646.4c0-32 19.2-44.8 51.2-44.8s51.2 12.8 51.2 44.8V128h102.4c19.2 0 32 12.8 32 32-6.4 19.2-12.8 25.6-32 32H563.2v44.8h102.4c19.2 0 32 12.8 32 32-6.4 19.2-12.8 25.6-32 32h-57.6l89.6 128c0 6.4 6.4 19.2 6.4 32-6.4 32-19.2 51.2-51.2 51.2-19.2 0-32-6.4-38.4-19.2L512 339.2 409.6 492.8c-6.4 12.8-19.2 19.2-38.4 19.2-32-6.4-51.2-19.2-51.2-51.2 0-12.8 0-25.6 12.8-32l89.6-128h-64c-19.2 0-25.6-12.8-32-25.6 0-19.2 12.8-32 32-32h102.4v-51.2H358.4c-19.2-6.4-32-12.8-32-32s12.8-32 32-32h102.4v-83.2zM512 640c-140.8 0-256 57.6-256 128s115.2 128 256 128 256-57.6 256-128-115.2-128-256-128z"  horiz-adv-x="1024" />

    
    <glyph glyph-name="ic_detaillist_down1" unicode="&#59043;" d="M512 371.2l217.6 166.4c25.6 19.2 70.4 19.2 89.6-12.8 19.2-32 19.2-64-12.8-89.6l-256-198.4c-25.6-19.2-57.6-19.2-76.8 0l-256 198.4c-25.6 19.2-32 57.6-12.8 89.6s64 32 89.6 12.8L512 371.2z"  horiz-adv-x="1024" />

    
    <glyph glyph-name="ic_detaillist_up" unicode="&#59044;" d="M294.4 230.4c-25.6-19.2-70.4-19.2-89.6 12.8s-12.8 70.4 12.8 89.6l256 198.4c19.2 19.2 51.2 19.2 76.8 0l256-198.4c32-25.6 32-57.6 12.8-89.6-19.2-32-64-32-89.6-12.8L512 396.8l-217.6-166.4z"  horiz-adv-x="1024" />

    
    <glyph glyph-name="ic_readlist_look1" unicode="&#59045;" d="M45.15968 467.2C198.75968 582.4 358.75968 640 512.35968 640s313.6-57.6 473.6-172.8c44.8-32 57.6-96 19.2-140.8l-19.2-19.2C825.95968 185.6 672.35968 128 512.35968 128S198.75968 185.6 45.15968 300.8C-6.04032 332.8-12.44032 403.2 19.55968 448c6.4 6.4 12.8 12.8 25.6 19.2z m460.8-236.8c83.2 0 153.6 70.4 153.6 153.6S589.15968 537.6 505.95968 537.6 352.35968 467.2 352.35968 384s70.4-153.6 153.6-153.6z"  horiz-adv-x="1027" />

    
    <glyph glyph-name="ic_readlist_vip1" unicode="&#59046;" d="M55.466667 896H1024v-311.466667c0-64-51.2-115.2-115.2-115.2H0V840.533333C0 870.4 25.6 896 55.466667 896zM170.666667 789.333333l110.933333-213.333333h64l110.933333 213.333333H401.066667l-85.333334-174.933333-85.333333 174.933333H170.666667z m320 0v-213.333333h51.2v213.333333h-51.2z m115.2 0v-213.333333h51.2V657.066667h76.8c81.066667 0 119.466667 21.333333 119.466666 68.266666 0 42.666667-38.4 64-115.2 64h-132.266666z m51.2-29.866666h76.8c21.333333 0 38.4-4.266667 51.2-8.533334 8.533333-4.266667 17.066667-12.8 17.066666-25.6s-4.266667-21.333333-17.066666-29.866666c-8.533333-4.266667-25.6-8.533333-51.2-8.533334h-76.8V759.466667z"  horiz-adv-x="1024" />

    
    <glyph glyph-name="ic_class_up1" unicode="&#59047;" d="M512 896c61.44 0 102.4-40.96 102.4-102.4v-512c0-61.44-40.96-102.4-102.4-102.4s-102.4 40.96-102.4 102.4V793.6c0 61.44 40.96 102.4 102.4 102.4zM204.8 179.2l307.2-102.4 307.2 102.4-307.2-307.2z"  horiz-adv-x="1024" />

    
    <glyph glyph-name="ic_nav_toast_sj" unicode="&#59048;" d="M512 896l512-614.4H0z"  horiz-adv-x="1024" />

    
    <glyph glyph-name="ic_switch_l" unicode="&#59049;" d="M358.4 384l431.542857-416.914286c21.942857-21.942857 21.942857-54.857143 0-76.8-21.942857-21.942857-58.514286-21.942857-80.457143 0L237.714286 343.771429c-21.942857 21.942857-21.942857 54.857143 0 76.8L705.828571 881.371429c21.942857 21.942857 58.514286 21.942857 80.457143 0 21.942857-21.942857 21.942857-54.857143 0-76.8L358.4 384z"  horiz-adv-x="1024" />

    
    <glyph glyph-name="ic_switch_r" unicode="&#59050;" d="M238.203209 801.083779C212.648841 822.987522 212.648841 859.493761 238.203209 881.397504s58.409982 21.903743 80.313725 0l470.930481-456.327985c21.903743-21.903743 21.903743-54.759358 0-76.663102L318.516934-111.572193c-21.903743-21.903743-58.409982-21.903743-80.313725 0s-21.903743 54.759358 0 76.663102L665.326203 384.912656 238.203209 801.083779z"  horiz-adv-x="1024" />

    
    <glyph glyph-name="ic_download_ios" unicode="&#59081;" d="M831.401787 342.370236c8.517381-102.208572 76.656429-161.830239 149.054167-195.899763 0-63.880357-119.243334-255.52143-242.745358-272.556192-72.397738-12.776071-93.691191 42.586905-187.382382 42.586905-76.656429 0-97.949881-42.586905-187.382381-42.586905-127.760715 0-268.297501 268.297501-276.814882 459.938574C77.61357 512.717856 192.598213 640.47857 324.617618 653.254642c149.054167 17.034762 144.795477-42.586905 217.193215-38.328215 76.656429 0 114.984643 51.104286 200.158454 46.845596 102.208572-4.25869 153.312858-55.362976 208.675834-110.725953-59.621667-42.586905-123.502024-106.467262-119.243334-208.675834zM729.193215 896c-174.60631-21.293452-221.451906-174.60631-212.934525-247.004049 132.019405-8.517381 229.969287 127.760715 212.934525 247.004049z"  horiz-adv-x="1024" />

    
    <glyph glyph-name="ic_download_android" unicode="&#59082;" d="M917.333333 576c-34.133333 0-64-29.866667-64-64v-247.466667c0-34.133333 29.866667-64 64-64s64 29.866667 64 64V512c0 34.133333-29.866667 64-64 64z m-768 0C115.2 576 85.333333 546.133333 85.333333 512v-247.466667c0-34.133333 29.866667-64 64-64S213.333333 230.4 213.333333 264.533333V512c0 34.133333-29.866667 64-64 64z m102.4-4.266667v-452.266666c0-25.6 21.333333-46.933333 51.2-46.933334h55.466667v-136.533333c0-34.133333 29.866667-64 64-64s64 29.866667 64 64v136.533333h98.133333v-136.533333c0-34.133333 29.866667-64 64-64s64 29.866667 64 64v136.533333H768c25.6 0 51.2 21.333333 51.2 46.933334V571.733333H251.733333z m418.133334 234.666667L721.066667 878.933333c4.266667 4.266667 4.266667 8.533333 0 12.8-4.266667 4.266667-8.533333 0-12.8-4.266666L652.8 810.666667c-76.8 29.866667-157.866667 29.866667-234.666667 0L362.666667 891.733333C358.4 896 354.133333 896 349.866667 896c-4.266667-4.266667-4.266667-8.533333 0-12.8L401.066667 810.666667C315.733333 768 256 695.466667 251.733333 614.4h567.466667C810.666667 695.466667 750.933333 768 669.866667 806.4z m-256-115.2c-17.066667 0-29.866667 12.8-29.866667 29.866667 0 17.066667 12.8 29.866667 29.866667 29.866666 17.066667 0 29.866667-12.8 29.866666-29.866666 0-17.066667-12.8-29.866667-29.866666-29.866667z m243.2 0c-17.066667 0-29.866667 12.8-29.866667 29.866667 0 17.066667 12.8 29.866667 29.866667 29.866666 17.066667 0 29.866667-12.8 29.866666-29.866666 0-17.066667-12.8-29.866667-29.866666-29.866667z"  horiz-adv-x="1024" />

    
    <glyph glyph-name="ic_read_choose_off1" unicode="&#59201;" d="M384 640c-70.4 0-128-57.6-128-128v-256c0-70.4 57.6-128 128-128h256c70.4 0 128 57.6 128 128V512c0 70.4-57.6 128-128 128H384z m0 128h256c140.8 0 256-115.2 256-256v-256c0-140.8-115.2-256-256-256H384c-140.8 0-256 115.2-256 256V512c0 140.8 115.2 256 256 256z"  horiz-adv-x="1024" />

    
    <glyph glyph-name="ic_read_choose_on1" unicode="&#59203;" d="M384 768h256c140.8 0 256-115.2 256-256v-256c0-140.8-115.2-256-256-256H384c-140.8 0-256 115.2-256 256V512c0 140.8 115.2 256 256 256zM659.2 556.8c25.6 25.6 64 25.6 89.6 0 25.6-25.6 25.6-64 0-89.6l-256-256c-25.6-25.6-64-25.6-89.6 0l-128 128c-25.6 25.6-25.6 64 0 89.6 25.6 25.6 64 25.6 89.6 0L448 345.6l211.2 211.2z"  horiz-adv-x="1024" />

    
    <glyph glyph-name="ic_login_smdl" unicode="&#58932;" d="M512 640V541.538462h-78.769231V738.461538h78.769231V817.230769h78.769231v-177.230769h-78.769231zM945.230769 384h78.769231v-157.538462h-78.769231v78.769231h-157.538461v78.769231h78.76923v78.769231h78.769231v-78.769231z m-393.846154-157.538462v157.538462h-157.538461v78.769231h118.153846V541.538462h78.769231v-78.769231h196.923077v-78.769231h-78.769231v-78.769231h-78.769231v-78.769231h78.769231v78.769231h78.769231v-78.769231h-78.769231v-157.538461h-157.538462v78.769231h-118.153846v78.76923h118.153846z m157.538462-157.538461v78.769231h315.076923v-275.692308h-157.538462v118.153846h-236.307692v78.769231h78.769231z m157.538461 0v78.769231h-78.76923v-78.769231h78.76923z m-354.461538-118.153846h78.769231v-78.769231h-157.538462v196.923077h78.769231v-118.153846z m-118.153846 354.461538H78.769231v78.769231H0v78.769231h157.538462v-78.769231h78.76923v78.769231h78.769231v-78.769231h78.769231v-78.769231z m315.076923-354.461538h78.769231v-78.769231h-78.769231v78.769231zM433.230769 896h78.769231v-78.769231h-78.769231V896z m315.076923-78.769231v-196.923077h196.923077V817.230769h-196.923077z m-78.76923 78.769231h354.461538v-354.461538h-354.461538V896zM78.769231 817.230769v-196.923077h196.923077V817.230769H78.769231zM0 896h354.461538v-354.461538H0V896z m78.769231-748.307692v-196.923077h196.923077v196.923077H78.769231z m-78.769231 78.76923h354.461538v-354.461538H0v354.461538zM787.692308 777.846154h118.153846v-118.153846h-118.153846V777.846154zM118.153846 777.846154h118.153846v-118.153846H118.153846V777.846154z m0-669.538462h118.153846v-118.153846H118.153846v118.153846z"  horiz-adv-x="1024" />

    
    <glyph glyph-name="ic_login_zhdl" unicode="&#58937;" d="M551.384615 108.307692v-39.384615h256a59.076923 59.076923 0 0 0 0-118.153846h-590.76923a59.076923 59.076923 0 0 0 0 118.153846H472.615385v39.384615H118.153846a118.153846 118.153846 0 0 0-118.153846 118.153846V699.076923a118.153846 118.153846 0 0 0 118.153846 118.153846h787.692308a118.153846 118.153846 0 0 0 118.153846-118.153846v-472.615385a118.153846 118.153846 0 0 0-118.153846-118.153846h-354.461539z m118.153847 393.846154v-98.461538a59.076923 59.076923 0 0 0-59.076924-59.076923h-354.461538A59.076923 59.076923 0 0 0 196.923077 403.692308v118.153846c0 3.702154 0.354462 7.325538 0.984615 10.870154A39.384615 39.384615 0 0 0 236.307692 580.923077h551.384616a39.384615 39.384615 0 0 0 0-78.769231h-118.153846zM118.153846 738.461538a39.384615 39.384615 0 0 1-39.384615-39.384615v-472.615385a39.384615 39.384615 0 0 1 39.384615-39.384615h787.692308a39.384615 39.384615 0 0 1 39.384615 39.384615V699.076923a39.384615 39.384615 0 0 1-39.384615 39.384615H118.153846z"  horiz-adv-x="1024" />

    
    <glyph glyph-name="ic_detail_tc_close" unicode="&#58939;" d="M512-128C229.248-128 0 101.248 0 384S229.248 896 512 896s512-229.248 512-512-229.248-512-512-512z m15.530667 556.8L316.330667 640 256 579.669333l211.2-211.2L256 157.269333l60.330667-60.330666 211.2 211.2 211.2-211.2 60.330666 60.330666-211.2 211.2 211.2 211.2L738.730667 640l-211.2-211.2z"  horiz-adv-x="1024" />

    


  </font>
</defs>
</svg>
